<svg width="74" height="74" viewBox="0 0 74 74" fill="none" xmlns="http://www.w3.org/2000/svg">
<path d="M73.3268 36.8418C73.3268 56.987 56.9959 73.3179 36.8507 73.3179C16.7056 73.3179 0.374664 56.987 0.374664 36.8418C0.374664 16.6966 16.7056 0.365753 36.8507 0.365753C56.9959 0.365753 73.3268 16.6966 73.3268 36.8418ZM8.03266 36.8418C8.03266 52.7576 20.9349 65.6599 36.8507 65.6599C52.7665 65.6599 65.6688 52.7576 65.6688 36.8418C65.6688 20.926 52.7665 8.02375 36.8507 8.02375C20.9349 8.02375 8.03266 20.926 8.03266 36.8418Z" fill="#EDEFFE"/>
<path d="M7.89379 21.7645C6.01812 20.7878 3.68523 21.5112 2.9105 23.4789C0.463424 29.694 -0.239025 36.4874 0.918251 43.1156C2.29592 51.006 6.23248 58.2237 12.1203 63.6543C18.008 69.0848 25.5196 72.4264 33.4955 73.1632C41.4714 73.9 49.468 71.991 56.251 67.7309C63.0339 63.4707 68.2261 57.0964 71.0259 49.5918C73.8256 42.0872 74.0774 33.8698 71.7423 26.2079C69.4072 18.546 64.615 11.8657 58.1056 7.19836C52.6375 3.27764 46.213 0.960423 39.5518 0.465853C37.4429 0.309276 35.7782 2.0966 35.8435 4.21029C35.9087 6.32398 37.6818 7.95818 39.7855 8.17354C44.7613 8.68291 49.5426 10.4817 53.6432 13.4219C58.786 17.1094 62.5721 22.3871 64.417 28.4404C66.2618 34.4937 66.0629 40.986 63.8509 46.915C61.6389 52.844 57.5369 57.8801 52.178 61.2458C46.8191 64.6115 40.5013 66.1198 34.1999 65.5377C27.8986 64.9556 21.964 62.3156 17.3123 58.0251C12.6607 53.7346 9.55056 48.0323 8.46212 41.7984C7.59428 36.8279 8.05018 31.7398 9.75206 27.0364C10.4716 25.0479 9.76946 22.7411 7.89379 21.7645Z" fill="url(#paint0_linear_1_102)"/>
<defs>
<linearGradient id="paint0_linear_1_102" x1="37.3794" y1="8.29533" x2="-18.1277" y2="108.737" gradientUnits="userSpaceOnUse">
<stop stop-color="#FE6789"/>
<stop offset="1" stop-color="#E56F8C"/>
</linearGradient>
</defs>
</svg>
