<svg width="16" height="16" viewBox="0 0 16 16" fill="none" xmlns="http://www.w3.org/2000/svg">
<path fill-rule="evenodd" clip-rule="evenodd" d="M8.905 2.42075C8.905 1.22705 9.86182 0.25 11.06 0.25H13.595C14.785 0.25 15.75 1.22641 15.75 2.42075V4.9775C15.75 6.17929 14.7843 7.1475 13.595 7.1475H11.06C9.86251 7.1475 8.905 6.17865 8.905 4.9775V2.42075ZM11.06 0.75C10.1432 0.75 9.405 1.49795 9.405 2.42075V4.9775C9.405 5.90635 10.1425 6.6475 11.06 6.6475H13.595C14.5057 6.6475 15.25 5.90571 15.25 4.9775V2.42075C15.25 1.49859 14.505 0.75 13.595 0.75H11.06ZM2.40492 0.5H4.93992C5.99742 0.5 6.84492 1.3625 6.84492 2.42075V4.9775C6.84492 6.0425 5.99742 6.8975 4.93992 6.8975H2.40492C1.35492 6.8975 0.499924 6.0425 0.499924 4.9775V2.42075C0.499924 1.3625 1.35492 0.5 2.40492 0.5ZM2.40492 8.85227C1.21545 8.85227 0.249924 9.82136 0.249924 11.023V13.5798C0.249924 14.7734 1.21494 15.7498 2.40492 15.7498H4.93992C6.13804 15.7498 7.09492 14.7728 7.09492 13.5798V11.023C7.09492 9.822 6.13754 8.85227 4.93992 8.85227H2.40492ZM0.749924 11.023C0.749924 10.0947 1.4944 9.35227 2.40492 9.35227H4.93992C5.85731 9.35227 6.59492 10.094 6.59492 11.023V13.5798C6.59492 14.5018 5.8568 15.2498 4.93992 15.2498H2.40492C1.4949 15.2498 0.749924 14.5011 0.749924 13.5798V11.023ZM11.06 8.85227C9.86239 8.85227 8.905 9.822 8.905 11.023V13.5798C8.905 14.7728 9.86188 15.7498 11.06 15.7498H13.595C14.785 15.7498 15.75 14.7734 15.75 13.5798V11.023C15.75 9.82136 14.7845 8.85227 13.595 8.85227H11.06ZM9.405 11.023C9.405 10.094 10.1426 9.35227 11.06 9.35227H13.595C14.5055 9.35227 15.25 10.0947 15.25 11.023V13.5798C15.25 14.5011 14.505 15.2498 13.595 15.2498H11.06C10.1431 15.2498 9.405 14.5018 9.405 13.5798V11.023Z" fill="white"/>
</svg>
