<svg width="361" height="334" viewBox="0 0 361 334" fill="none" xmlns="http://www.w3.org/2000/svg">
<g clip-path="url(#clip0_1_129)">
<rect y="0.921875" width="360.531" height="333.042" rx="25.3746" fill="#1C1F37"/>
<path d="M51.9745 286.979V293.92C51.9745 294.693 51.7364 295.313 51.2602 295.78C50.784 296.238 50.1551 296.467 49.3734 296.467C48.5828 296.467 47.9493 296.234 47.4731 295.766C46.997 295.29 46.7589 294.643 46.7589 293.826H47.9853C47.9943 294.284 48.1111 294.657 48.3357 294.944C48.5693 295.232 48.9152 295.376 49.3734 295.376C49.8316 295.376 50.1731 295.241 50.3977 294.971C50.6223 294.693 50.7346 294.342 50.7346 293.92V286.979H51.9745ZM53.9324 292.653C53.9324 291.898 54.0851 291.238 54.3906 290.672C54.6961 290.097 55.1138 289.652 55.6439 289.338C56.183 289.023 56.7805 288.866 57.4364 288.866C58.0833 288.866 58.6448 289.005 59.121 289.284C59.5972 289.562 59.9521 289.913 60.1857 290.335V288.987H61.4256V296.373H60.1857V294.998C59.9431 295.429 59.5792 295.789 59.0941 296.076C58.6179 296.355 58.0608 296.494 57.4229 296.494C56.767 296.494 56.174 296.332 55.6439 296.009C55.1138 295.686 54.6961 295.232 54.3906 294.648C54.0851 294.064 53.9324 293.399 53.9324 292.653ZM60.1857 292.667C60.1857 292.11 60.0734 291.624 59.8488 291.211C59.6242 290.798 59.3187 290.483 58.9323 290.268C58.555 290.043 58.1372 289.931 57.679 289.931C57.2208 289.931 56.803 290.039 56.4256 290.254C56.0483 290.47 55.7473 290.784 55.5226 291.198C55.298 291.611 55.1857 292.096 55.1857 292.653C55.1857 293.219 55.298 293.713 55.5226 294.136C55.7473 294.549 56.0483 294.868 56.4256 295.093C56.803 295.308 57.2208 295.416 57.679 295.416C58.1372 295.416 58.555 295.308 58.9323 295.093C59.3187 294.868 59.6242 294.549 59.8488 294.136C60.0734 293.713 60.1857 293.224 60.1857 292.667ZM67.0965 288.853C67.995 288.853 68.7227 289.127 69.2798 289.675C69.8368 290.214 70.1154 290.995 70.1154 292.02V296.373H68.9024V292.195C68.9024 291.458 68.7183 290.897 68.3499 290.51C67.9815 290.115 67.4784 289.917 66.8404 289.917C66.1935 289.917 65.6769 290.119 65.2906 290.524C64.9132 290.928 64.7245 291.517 64.7245 292.289V296.373H63.4981V288.987H64.7245V290.039C64.9671 289.661 65.2951 289.369 65.7084 289.163C66.1307 288.956 66.5934 288.853 67.0965 288.853Z" fill="white"/>
<path d="M113.201 286.979V287.977H109.117V291.144H112.433V292.141H109.117V296.373H107.891V286.979H113.201ZM121.421 292.397C121.421 292.631 121.407 292.878 121.38 293.138H115.477C115.522 293.866 115.769 294.437 116.219 294.85C116.677 295.254 117.229 295.456 117.876 295.456C118.406 295.456 118.847 295.335 119.197 295.093C119.556 294.841 119.808 294.509 119.952 294.095H121.272C121.075 294.805 120.679 295.385 120.086 295.834C119.493 296.274 118.757 296.494 117.876 296.494C117.175 296.494 116.546 296.337 115.989 296.022C115.441 295.708 115.01 295.263 114.696 294.688C114.381 294.104 114.224 293.43 114.224 292.667C114.224 291.903 114.377 291.234 114.682 290.659C114.988 290.084 115.414 289.643 115.962 289.338C116.52 289.023 117.157 288.866 117.876 288.866C118.577 288.866 119.197 289.019 119.736 289.324C120.275 289.63 120.688 290.052 120.976 290.591C121.272 291.121 121.421 291.723 121.421 292.397ZM120.154 292.141C120.154 291.674 120.051 291.274 119.844 290.942C119.637 290.6 119.354 290.344 118.995 290.173C118.644 289.994 118.254 289.904 117.822 289.904C117.202 289.904 116.672 290.101 116.232 290.497C115.801 290.892 115.554 291.44 115.491 292.141H120.154ZM124.266 290.362C124.518 289.922 124.886 289.562 125.371 289.284C125.856 289.005 126.409 288.866 127.029 288.866C127.694 288.866 128.291 289.023 128.821 289.338C129.351 289.652 129.769 290.097 130.075 290.672C130.38 291.238 130.533 291.898 130.533 292.653C130.533 293.399 130.38 294.064 130.075 294.648C129.769 295.232 129.347 295.686 128.808 296.009C128.278 296.332 127.685 296.494 127.029 296.494C126.391 296.494 125.829 296.355 125.344 296.076C124.868 295.798 124.509 295.443 124.266 295.012V296.373H123.04V286.4H124.266V290.362ZM129.279 292.653C129.279 292.096 129.167 291.611 128.942 291.198C128.718 290.784 128.412 290.47 128.026 290.254C127.649 290.039 127.231 289.931 126.773 289.931C126.323 289.931 125.906 290.043 125.519 290.268C125.142 290.483 124.836 290.802 124.603 291.225C124.378 291.638 124.266 292.119 124.266 292.667C124.266 293.224 124.378 293.713 124.603 294.136C124.836 294.549 125.142 294.868 125.519 295.093C125.906 295.308 126.323 295.416 126.773 295.416C127.231 295.416 127.649 295.308 128.026 295.093C128.412 294.868 128.718 294.549 128.942 294.136C129.167 293.713 129.279 293.219 129.279 292.653Z" fill="white"/>
<path d="M179.029 287.047V296.373H177.802V289.419L174.703 296.373H173.84L170.727 289.405V296.373H169.5V287.047H170.821L174.271 294.756L177.721 287.047H179.029ZM180.65 292.653C180.65 291.898 180.803 291.238 181.109 290.672C181.414 290.097 181.832 289.652 182.362 289.338C182.901 289.023 183.499 288.866 184.154 288.866C184.801 288.866 185.363 289.005 185.839 289.284C186.315 289.562 186.67 289.913 186.904 290.335V288.987H188.144V296.373H186.904V294.998C186.661 295.429 186.297 295.789 185.812 296.076C185.336 296.355 184.779 296.494 184.141 296.494C183.485 296.494 182.892 296.332 182.362 296.009C181.832 295.686 181.414 295.232 181.109 294.648C180.803 294.064 180.65 293.399 180.65 292.653ZM186.904 292.667C186.904 292.11 186.791 291.624 186.567 291.211C186.342 290.798 186.037 290.483 185.65 290.268C185.273 290.043 184.855 289.931 184.397 289.931C183.939 289.931 183.521 290.039 183.144 290.254C182.766 290.47 182.465 290.784 182.241 291.198C182.016 291.611 181.904 292.096 181.904 292.653C181.904 293.219 182.016 293.713 182.241 294.136C182.465 294.549 182.766 294.868 183.144 295.093C183.521 295.308 183.939 295.416 184.397 295.416C184.855 295.416 185.273 295.308 185.65 295.093C186.037 294.868 186.342 294.549 186.567 294.136C186.791 293.713 186.904 293.224 186.904 292.667ZM191.443 290.187C191.658 289.765 191.964 289.437 192.359 289.203C192.763 288.969 193.253 288.853 193.828 288.853V290.119H193.505C192.13 290.119 191.443 290.865 191.443 292.357V296.373H190.216V288.987H191.443V290.187Z" fill="white"/>
<path d="M237.625 294.284H233.528L232.773 296.373H231.48L234.876 287.033H236.291L239.674 296.373H238.38L237.625 294.284ZM237.275 293.287L235.577 288.543L233.879 293.287H237.275ZM242.38 290.349C242.623 289.926 242.982 289.576 243.458 289.297C243.944 289.01 244.505 288.866 245.143 288.866C245.799 288.866 246.392 289.023 246.922 289.338C247.461 289.652 247.883 290.097 248.189 290.672C248.494 291.238 248.647 291.898 248.647 292.653C248.647 293.399 248.494 294.064 248.189 294.648C247.883 295.232 247.461 295.686 246.922 296.009C246.392 296.332 245.799 296.494 245.143 296.494C244.514 296.494 243.957 296.355 243.472 296.076C242.996 295.789 242.632 295.434 242.38 295.012V299.877H241.154V288.987H242.38V290.349ZM247.394 292.653C247.394 292.096 247.281 291.611 247.057 291.198C246.832 290.784 246.527 290.47 246.14 290.254C245.763 290.039 245.345 289.931 244.887 289.931C244.438 289.931 244.02 290.043 243.634 290.268C243.256 290.483 242.951 290.802 242.717 291.225C242.493 291.638 242.38 292.119 242.38 292.667C242.38 293.224 242.493 293.713 242.717 294.136C242.951 294.549 243.256 294.868 243.634 295.093C244.02 295.308 244.438 295.416 244.887 295.416C245.345 295.416 245.763 295.308 246.14 295.093C246.527 294.868 246.832 294.549 247.057 294.136C247.281 293.713 247.394 293.219 247.394 292.653ZM251.488 290.187C251.704 289.765 252.009 289.437 252.404 289.203C252.809 288.969 253.298 288.853 253.873 288.853V290.119H253.55C252.175 290.119 251.488 290.865 251.488 292.357V296.373H250.261V288.987H251.488V290.187Z" fill="white"/>
<path d="M302.248 287.047V296.373H301.022V289.419L297.922 296.373H297.059L293.946 289.405V296.373H292.72V287.047H294.04L297.491 294.756L300.941 287.047H302.248ZM303.87 292.653C303.87 291.898 304.022 291.238 304.328 290.672C304.633 290.097 305.051 289.652 305.581 289.338C306.12 289.023 306.718 288.866 307.374 288.866C308.021 288.866 308.582 289.005 309.058 289.284C309.534 289.562 309.889 289.913 310.123 290.335V288.987H311.363V296.373H310.123V294.998C309.88 295.429 309.516 295.789 309.031 296.076C308.555 296.355 307.998 296.494 307.36 296.494C306.704 296.494 306.111 296.332 305.581 296.009C305.051 295.686 304.633 295.232 304.328 294.648C304.022 294.064 303.87 293.399 303.87 292.653ZM310.123 292.667C310.123 292.11 310.011 291.624 309.786 291.211C309.561 290.798 309.256 290.483 308.87 290.268C308.492 290.043 308.074 289.931 307.616 289.931C307.158 289.931 306.74 290.039 306.363 290.254C305.985 290.47 305.685 290.784 305.46 291.198C305.235 291.611 305.123 292.096 305.123 292.653C305.123 293.219 305.235 293.713 305.46 294.136C305.685 294.549 305.985 294.868 306.363 295.093C306.74 295.308 307.158 295.416 307.616 295.416C308.074 295.416 308.492 295.308 308.87 295.093C309.256 294.868 309.561 294.549 309.786 294.136C310.011 293.713 310.123 293.224 310.123 292.667ZM319.797 288.987L315.349 299.85H314.082L315.538 296.292L312.559 288.987H313.921L316.239 294.971L318.53 288.987H319.797Z" fill="white"/>
<path d="M0 200.585L4.01103 194.303C8.02207 188.021 16.0441 175.456 24.0662 176.692C32.0883 177.927 40.1103 192.963 48.1324 186.204C56.1545 179.445 64.1766 150.893 72.1986 141.767C80.2207 132.642 88.2428 142.944 96.2648 139.029C104.287 135.114 112.309 116.982 120.331 122.201C128.353 127.42 136.375 155.991 144.397 157.312C152.419 158.633 160.441 132.704 168.463 119.379C176.486 106.053 184.508 105.331 192.53 112.224C200.552 119.118 208.574 133.627 216.596 135.192C224.618 136.758 232.64 125.379 240.662 127.275C248.684 129.17 256.706 144.339 264.728 152.127C272.75 159.914 280.772 160.321 288.794 157.892C296.817 155.463 304.839 150.199 312.861 135.924C320.883 121.649 328.905 98.3638 336.927 86.9877C344.949 75.6117 352.971 76.1451 356.982 76.4118L360.993 76.6785" stroke="#4495C7" stroke-width="1.61227"/>
<path d="M4.01103 195.108L0 201.39V261.141H360.993V77.4831L356.982 77.2164C352.971 76.9497 344.949 76.4163 336.927 87.7924C328.905 99.1684 320.883 122.454 312.861 136.729C304.839 151.004 296.817 156.268 288.794 158.697C280.772 161.126 272.75 160.719 264.728 152.931C256.706 145.143 248.684 129.975 240.662 128.079C232.64 126.184 224.618 137.562 216.596 135.997C208.574 134.431 200.552 119.922 192.53 113.029C184.508 106.135 176.486 106.858 168.463 120.183C160.441 133.509 152.419 159.437 144.397 158.116C136.375 156.795 128.353 128.225 120.331 123.006C112.309 117.787 104.287 135.919 96.2648 139.834C88.2428 143.749 80.2207 133.447 72.1986 142.572C64.1766 151.697 56.1545 180.25 48.1324 187.009C40.1103 193.767 32.0883 178.732 24.0662 177.497C16.0441 176.261 8.02207 188.825 4.01103 195.108Z" fill="url(#paint0_linear_1_129)"/>
<line x1="243.069" y1="75.859" x2="243.069" y2="261.65" stroke="#BEC3E1" stroke-opacity="0.7" stroke-width="0.962648" stroke-dasharray="2.89 2.89"/>
<rect x="216.595" y="94.1494" width="51.0204" height="19.253" rx="2" fill="#4495C7"/>
<path d="M231.894 106.284C231.894 106.573 231.821 106.845 231.677 107.099C231.538 107.353 231.33 107.567 231.053 107.74C230.782 107.913 230.458 108.017 230.083 108.052V108.754H229.52V108.052C228.977 108 228.538 107.83 228.203 107.541C227.868 107.252 227.7 106.871 227.7 106.397H228.757C228.775 106.622 228.847 106.81 228.974 106.96C229.101 107.105 229.283 107.197 229.52 107.238V105.331C229.133 105.233 228.818 105.135 228.575 105.037C228.333 104.933 228.125 104.771 227.952 104.552C227.784 104.332 227.7 104.032 227.7 103.651C227.7 103.171 227.868 102.776 228.203 102.464C228.538 102.146 228.977 101.961 229.52 101.909V101.207H230.083V101.909C230.591 101.955 230.998 102.117 231.304 102.394C231.616 102.666 231.793 103.041 231.833 103.521H230.776C230.759 103.342 230.689 103.183 230.568 103.044C230.447 102.9 230.285 102.802 230.083 102.75V104.621C230.47 104.713 230.785 104.812 231.027 104.916C231.27 105.014 231.475 105.173 231.642 105.392C231.81 105.606 231.894 105.903 231.894 106.284ZM228.705 103.599C228.705 103.836 228.775 104.02 228.913 104.153C229.058 104.286 229.26 104.393 229.52 104.474V102.724C229.271 102.753 229.072 102.842 228.922 102.992C228.778 103.142 228.705 103.345 228.705 103.599ZM230.083 107.238C230.337 107.197 230.536 107.096 230.681 106.934C230.825 106.767 230.897 106.568 230.897 106.336C230.897 106.105 230.825 105.926 230.681 105.799C230.542 105.666 230.343 105.56 230.083 105.479V107.238ZM234.401 104.699C233.8 104.399 233.5 103.925 233.5 103.278C233.5 102.966 233.578 102.68 233.734 102.42C233.89 102.161 234.124 101.955 234.435 101.805C234.747 101.649 235.129 101.571 235.579 101.571C236.024 101.571 236.402 101.649 236.714 101.805C237.032 101.955 237.269 102.161 237.425 102.42C237.58 102.68 237.658 102.966 237.658 103.278C237.658 103.602 237.575 103.888 237.407 104.136C237.245 104.378 237.029 104.566 236.757 104.699C237.087 104.82 237.347 105.02 237.537 105.297C237.728 105.568 237.823 105.889 237.823 106.259C237.823 106.634 237.728 106.966 237.537 107.255C237.347 107.544 237.081 107.766 236.74 107.922C236.399 108.078 236.012 108.156 235.579 108.156C235.146 108.156 234.759 108.078 234.418 107.922C234.083 107.766 233.82 107.544 233.63 107.255C233.439 106.966 233.344 106.634 233.344 106.259C233.344 105.883 233.439 105.56 233.63 105.288C233.82 105.017 234.077 104.82 234.401 104.699ZM236.714 103.399C236.714 103.076 236.613 102.828 236.411 102.654C236.209 102.481 235.931 102.394 235.579 102.394C235.233 102.394 234.958 102.481 234.756 102.654C234.554 102.828 234.453 103.079 234.453 103.408C234.453 103.697 234.557 103.934 234.765 104.119C234.978 104.298 235.25 104.387 235.579 104.387C235.908 104.387 236.18 104.295 236.394 104.11C236.607 103.925 236.714 103.688 236.714 103.399ZM235.579 105.132C235.198 105.132 234.886 105.228 234.643 105.418C234.407 105.603 234.288 105.872 234.288 106.224C234.288 106.553 234.404 106.822 234.635 107.03C234.866 107.232 235.181 107.333 235.579 107.333C235.972 107.333 236.281 107.229 236.506 107.021C236.737 106.813 236.853 106.547 236.853 106.224C236.853 105.877 236.734 105.609 236.497 105.418C236.266 105.228 235.96 105.132 235.579 105.132ZM239.389 108.061C239.21 108.061 239.059 108 238.938 107.879C238.817 107.757 238.756 107.607 238.756 107.428C238.756 107.249 238.817 107.099 238.938 106.978C239.059 106.856 239.21 106.796 239.389 106.796C239.562 106.796 239.709 106.856 239.83 106.978C239.952 107.099 240.012 107.249 240.012 107.428C240.012 107.607 239.952 107.757 239.83 107.879C239.709 108 239.562 108.061 239.389 108.061ZM242.18 106.284C242.238 106.573 242.362 106.793 242.553 106.943C242.743 107.093 243 107.168 243.324 107.168C243.734 107.168 244.034 107.006 244.225 106.683C244.415 106.36 244.511 105.808 244.511 105.028C244.372 105.225 244.176 105.378 243.922 105.487C243.673 105.591 243.402 105.643 243.107 105.643C242.732 105.643 242.391 105.568 242.085 105.418C241.779 105.262 241.536 105.034 241.357 104.734C241.184 104.428 241.097 104.058 241.097 103.625C241.097 102.989 241.282 102.484 241.652 102.109C242.027 101.727 242.541 101.537 243.194 101.537C243.979 101.537 244.537 101.8 244.866 102.325C245.201 102.845 245.368 103.645 245.368 104.725C245.368 105.47 245.305 106.079 245.178 106.553C245.057 107.027 244.843 107.385 244.537 107.627C244.231 107.87 243.806 107.991 243.263 107.991C242.645 107.991 242.169 107.83 241.834 107.506C241.499 107.183 241.311 106.775 241.27 106.284H242.18ZM243.28 104.812C243.627 104.812 243.898 104.705 244.095 104.491C244.297 104.272 244.398 103.983 244.398 103.625C244.398 103.226 244.291 102.917 244.078 102.698C243.87 102.472 243.584 102.36 243.22 102.36C242.856 102.36 242.567 102.475 242.353 102.706C242.145 102.932 242.042 103.229 242.042 103.599C242.042 103.951 242.143 104.243 242.345 104.474C242.553 104.699 242.865 104.812 243.28 104.812ZM246.449 104.76C246.449 103.76 246.617 102.981 246.952 102.42C247.293 101.854 247.876 101.571 248.702 101.571C249.528 101.571 250.108 101.854 250.443 102.42C250.784 102.981 250.955 103.76 250.955 104.76C250.955 105.77 250.784 106.562 250.443 107.134C250.108 107.7 249.528 107.983 248.702 107.983C247.876 107.983 247.293 107.7 246.952 107.134C246.617 106.562 246.449 105.77 246.449 104.76ZM249.984 104.76C249.984 104.292 249.952 103.896 249.889 103.573C249.831 103.249 249.71 102.986 249.525 102.784C249.34 102.576 249.066 102.472 248.702 102.472C248.338 102.472 248.064 102.576 247.879 102.784C247.694 102.986 247.57 103.249 247.506 103.573C247.449 103.896 247.42 104.292 247.42 104.76C247.42 105.245 247.449 105.652 247.506 105.981C247.564 106.31 247.685 106.576 247.87 106.778C248.061 106.98 248.338 107.082 248.702 107.082C249.066 107.082 249.34 106.98 249.525 106.778C249.716 106.576 249.84 106.31 249.898 105.981C249.955 105.652 249.984 105.245 249.984 104.76ZM252 104.76C252 103.76 252.167 102.981 252.502 102.42C252.843 101.854 253.426 101.571 254.252 101.571C255.078 101.571 255.659 101.854 255.994 102.42C256.334 102.981 256.505 103.76 256.505 104.76C256.505 105.77 256.334 106.562 255.994 107.134C255.659 107.7 255.078 107.983 254.252 107.983C253.426 107.983 252.843 107.7 252.502 107.134C252.167 106.562 252 105.77 252 104.76ZM255.535 104.76C255.535 104.292 255.503 103.896 255.439 103.573C255.381 103.249 255.26 102.986 255.075 102.784C254.89 102.576 254.616 102.472 254.252 102.472C253.888 102.472 253.614 102.576 253.429 102.784C253.244 102.986 253.12 103.249 253.057 103.573C252.999 103.896 252.97 104.292 252.97 104.76C252.97 105.245 252.999 105.652 253.057 105.981C253.114 106.31 253.236 106.576 253.421 106.778C253.611 106.98 253.888 107.082 254.252 107.082C254.616 107.082 254.89 106.98 255.075 106.778C255.266 106.576 255.39 106.31 255.448 105.981C255.506 105.652 255.535 105.245 255.535 104.76Z" fill="white"/>
<g filter="url(#filter0_d_1_129)">
<circle cx="243.551" cy="128.804" r="9.62648" fill="white"/>
</g>
<circle cx="243.551" cy="128.804" r="6.41766" fill="#4495C7"/>
<path d="M104.408 38.8648V43.8383H106.066V38.8648L110.177 31.6077H108.367L105.66 36.4965C105.44 36.9025 105.406 37.004 105.254 37.3085C105.119 37.0209 105.017 36.7841 104.848 36.4965L102.124 31.6077H100.264L104.408 38.8648ZM109.294 39.6937C109.294 42.2481 111.121 44.0413 113.607 44.0413C116.077 44.0413 117.904 42.2481 117.904 39.6937C117.904 37.1394 116.077 35.3462 113.607 35.3462C111.121 35.3462 109.294 37.1394 109.294 39.6937ZM110.901 39.6937C110.901 37.9683 112 36.7672 113.607 36.7672C115.198 36.7672 116.314 37.9683 116.314 39.6937C116.314 41.4192 115.198 42.6203 113.607 42.6203C112 42.6203 110.901 41.4192 110.901 39.6937ZM125.184 35.5661V39.9306C125.184 41.7068 124.389 42.6372 122.934 42.6372C121.716 42.6372 120.955 41.9605 120.955 40.1843V35.5661H119.365V40.7087C119.365 42.7387 120.447 44.0413 122.376 44.0413C123.594 44.0413 124.693 43.4492 125.167 42.5865L125.336 43.8383H126.757V35.5661H125.184ZM133.801 35.4985C133.48 35.4308 133.243 35.397 132.955 35.397C131.822 35.397 130.993 35.9721 130.654 36.8349L130.553 35.5831H129.064V43.8383H130.654V39.4569C130.654 37.8668 131.585 36.9533 133.09 36.9533H133.801V35.4985ZM141.846 31.6077H140.189V43.8383H141.846V31.6077ZM146.018 43.8383V39.4569C146.018 37.8499 146.881 36.7841 148.369 36.7841C149.587 36.7841 150.366 37.4608 150.366 39.1355V43.8383H151.956V38.7803C151.956 36.6657 150.958 35.3293 148.775 35.3293C147.608 35.3293 146.559 35.8875 146.035 36.8349L145.866 35.5661H144.428V43.8383H146.018ZM153.617 39.7107C153.617 42.3158 155.224 44.0413 157.66 44.0413C159.656 44.0413 161.195 42.8402 161.517 41.0471H159.927C159.639 42.0282 158.793 42.6203 157.66 42.6203C156.154 42.6203 155.19 41.47 155.19 39.6937C155.19 37.9006 156.222 36.7503 157.727 36.7503C158.793 36.7503 159.639 37.3085 159.91 38.3573H161.5C161.212 36.5135 159.757 35.3293 157.677 35.3293C155.258 35.3293 153.617 37.1224 153.617 39.7107ZM162.653 39.6937C162.653 42.2481 164.48 44.0413 166.967 44.0413C169.437 44.0413 171.264 42.2481 171.264 39.6937C171.264 37.1394 169.437 35.3462 166.967 35.3462C164.48 35.3462 162.653 37.1394 162.653 39.6937ZM164.26 39.6937C164.26 37.9683 165.36 36.7672 166.967 36.7672C168.557 36.7672 169.674 37.9683 169.674 39.6937C169.674 41.4192 168.557 42.6203 166.967 42.6203C165.36 42.6203 164.26 41.4192 164.26 39.6937ZM174.614 43.8383V38.9325C174.614 37.613 175.409 36.7841 176.61 36.7841C177.727 36.7841 178.437 37.4946 178.437 38.7972V43.8383H180.01V38.9325C180.01 37.613 180.805 36.7672 182.007 36.7672C183.123 36.7672 183.85 37.5115 183.85 38.8141V43.8383H185.407V38.425C185.407 36.5135 184.256 35.3293 182.362 35.3293C181.076 35.3293 180.078 35.9721 179.689 37.004C179.266 35.9721 178.353 35.3293 177.067 35.3293C175.9 35.3293 175.02 35.8706 174.597 36.6488L174.445 35.5661H173.024V43.8383H174.614ZM191.18 44.0413C193.227 44.0413 194.614 43.0432 195.02 41.267H193.532C193.261 42.2143 192.449 42.7218 191.214 42.7218C189.641 42.7218 188.728 41.7576 188.609 40.0152L195.004 39.9982V39.4062C195.004 36.9533 193.464 35.3293 191.113 35.3293C188.711 35.3293 187.07 37.1224 187.07 39.7107C187.07 42.282 188.744 44.0413 191.18 44.0413ZM191.113 36.6657C192.517 36.6657 193.413 37.5792 193.413 38.9494H188.643C188.846 37.4946 189.726 36.6657 191.113 36.6657ZM202.183 33.6038C202.759 33.6038 203.232 33.1302 203.232 32.555C203.232 31.9629 202.759 31.5062 202.183 31.5062C201.608 31.5062 201.135 31.9629 201.135 32.555C201.135 33.1302 201.608 33.6038 202.183 33.6038ZM201.405 43.8383H202.995V35.5661H201.405V43.8383ZM206.894 43.8383V39.4569C206.894 37.8499 207.757 36.7841 209.245 36.7841C210.463 36.7841 211.242 37.4608 211.242 39.1355V43.8383H212.832V38.7803C212.832 36.6657 211.834 35.3293 209.651 35.3293C208.484 35.3293 207.435 35.8875 206.911 36.8349L206.742 35.5661H205.304V43.8383H206.894ZM227.543 43.8214V42.282H221.893L224.43 40.0828C226.595 38.2051 227.458 36.9702 227.458 35.2278C227.458 32.8764 225.885 31.3878 223.432 31.3878C220.945 31.3878 219.288 33.0963 219.237 35.7184H220.895C220.928 33.976 221.91 32.8764 223.415 32.8764C224.887 32.8764 225.767 33.7899 225.767 35.3293C225.767 36.6319 225.208 37.4608 223.229 39.1693L219.288 42.5695V43.8383L227.543 43.8214ZM229.069 37.7314C229.069 41.5376 230.946 44.0582 234.11 44.0582C237.256 44.0582 239.134 41.5376 239.134 37.7314C239.134 33.9422 237.172 31.3709 234.11 31.3709C231.031 31.3709 229.069 33.9422 229.069 37.7314ZM230.709 37.7314C230.709 34.6865 231.961 32.8595 234.11 32.8595C236.258 32.8595 237.493 34.6865 237.493 37.7314C237.493 40.7426 236.258 42.5695 234.11 42.5695C231.961 42.5695 230.709 40.7426 230.709 37.7314ZM249.002 43.8214V42.282H243.352L245.89 40.0828C248.055 38.2051 248.918 36.9702 248.918 35.2278C248.918 32.8764 247.344 31.3878 244.892 31.3878C242.405 31.3878 240.747 33.0963 240.696 35.7184H242.354C242.388 33.976 243.369 32.8764 244.875 32.8764C246.346 32.8764 247.226 33.7899 247.226 35.3293C247.226 36.6319 246.668 37.4608 244.689 39.1693L240.747 42.5695V43.8383L249.002 43.8214ZM254.096 37.5115C256.041 37.5115 257.056 38.4927 257.056 39.9644C257.056 41.5376 256.024 42.5526 254.434 42.5526C252.895 42.5526 251.914 41.6222 251.914 40.0321H250.273C250.273 42.5695 251.998 44.0413 254.4 44.0413C256.887 44.0413 258.748 42.468 258.748 39.9982C258.748 37.7991 257.175 36.395 255.094 36.1413L258.443 32.9441V31.6077H250.848V33.0794H256.346L252.878 36.412V37.5115H254.096Z" fill="white"/>
</g>
<defs>
<filter id="filter0_d_1_129" x="221.892" y="110.354" width="43.3192" height="43.3192" filterUnits="userSpaceOnUse" color-interpolation-filters="sRGB">
<feFlood flood-opacity="0" result="BackgroundImageFix"/>
<feColorMatrix in="SourceAlpha" type="matrix" values="0 0 0 0 0 0 0 0 0 0 0 0 0 0 0 0 0 0 127 0" result="hardAlpha"/>
<feOffset dy="3.20883"/>
<feGaussianBlur stdDeviation="6.01655"/>
<feComposite in2="hardAlpha" operator="out"/>
<feColorMatrix type="matrix" values="0 0 0 0 0.266667 0 0 0 0 0.584314 0 0 0 0 0.780392 0 0 0 0.3 0"/>
<feBlend mode="normal" in2="BackgroundImageFix" result="effect1_dropShadow_1_129"/>
<feBlend mode="normal" in="SourceGraphic" in2="effect1_dropShadow_1_129" result="shape"/>
</filter>
<linearGradient id="paint0_linear_1_129" x1="180.497" y1="77.1171" x2="180.497" y2="261.141" gradientUnits="userSpaceOnUse">
<stop stop-color="#4495C7"/>
<stop offset="1" stop-color="#4495C7" stop-opacity="0"/>
</linearGradient>
<clipPath id="clip0_1_129">
<rect y="0.921875" width="360.531" height="333.042" rx="25.3746" fill="white"/>
</clipPath>
</defs>
</svg>
