<svg width="361" height="108" viewBox="0 0 361 108" fill="none" xmlns="http://www.w3.org/2000/svg">
<rect y="0.44928" width="360.531" height="106.785" rx="25.3746" fill="#1C1F37"/>
<path d="M122.665 48.1669C125.958 48.1669 128.508 46.2257 129.041 43.295H126.51C126.053 44.8365 124.606 45.8261 122.722 45.8261C120.172 45.8261 118.536 43.923 118.536 40.9732C118.536 38.0043 120.153 36.1393 122.722 36.1393C124.568 36.1393 125.958 37.0909 126.433 38.7085H129.003C128.527 35.7206 126.072 33.7985 122.779 33.7985C118.707 33.7985 115.985 36.6722 115.985 40.9922C115.985 45.3503 118.612 48.1669 122.665 48.1669ZM133.494 48.1859C134.96 48.1859 136.235 47.5198 136.634 46.5493L136.806 47.9385H138.842V42.2292C138.842 39.622 137.282 38.2517 134.75 38.2517C132.2 38.2517 130.526 39.5839 130.526 41.6202H132.505C132.505 40.6306 133.266 40.0597 134.636 40.0597C135.816 40.0597 136.577 40.5735 136.577 41.8486V42.0579L133.761 42.2673C131.534 42.4386 130.278 43.5233 130.278 45.2551C130.278 47.025 131.496 48.1859 133.494 48.1859ZM134.256 46.4351C133.209 46.4351 132.638 46.0164 132.638 45.16C132.638 44.3988 133.19 43.923 134.636 43.7898L136.596 43.6375V44.1323C136.596 45.5787 135.683 46.4351 134.256 46.4351ZM147.023 38.4991C146.642 38.404 146.318 38.3659 145.995 38.3659C144.739 38.3659 143.844 38.994 143.445 39.9265L143.312 38.5562H141.123V47.9385H143.445V43.3711C143.445 41.5441 144.491 40.6496 146.166 40.6496H147.023V38.4991ZM159.566 43.1427C162.345 43.1427 164.172 41.2586 164.172 38.5753C164.172 35.8538 162.364 34.0269 159.566 34.0269H154.066V47.9385H156.502V43.1427H159.566ZM159.09 36.1964C160.708 36.1964 161.621 37.0338 161.621 38.5562C161.621 40.0787 160.727 40.9732 159.052 40.9732H156.502V36.1964H159.09ZM172.253 38.5372V43.4662C172.253 45.2551 171.549 46.1115 170.084 46.1115C168.79 46.1115 168.086 45.3884 168.086 43.5994V38.5372H165.764V44.4178C165.764 46.7205 167.039 48.1859 169.209 48.1859C170.465 48.1859 171.683 47.5769 172.253 46.6825L172.425 47.9385H174.575V38.5372H172.253ZM182.873 38.4991C182.492 38.404 182.169 38.3659 181.845 38.3659C180.589 38.3659 179.695 38.994 179.295 39.9265L179.162 38.5562H176.973V47.9385H179.295V43.3711C179.295 41.5441 180.342 40.6496 182.017 40.6496H182.873V38.4991ZM183.577 43.2188C183.577 46.2067 185.442 48.1859 188.296 48.1859C190.751 48.1859 192.578 46.6825 192.864 44.4939H190.523C190.276 45.5216 189.457 46.0925 188.296 46.0925C186.812 46.0925 185.898 44.9887 185.898 43.2188C185.898 41.4489 186.888 40.3261 188.372 40.3261C189.476 40.3261 190.256 40.878 190.523 41.9438H192.845C192.597 39.6791 190.846 38.2517 188.277 38.2517C185.499 38.2517 183.577 40.3071 183.577 43.2188ZM196.914 47.9385V42.8001C196.914 41.3919 197.77 40.3642 199.235 40.3642C200.415 40.3642 201.196 41.1254 201.196 42.705V47.9385H203.517V42.1531C203.517 39.7171 202.299 38.2517 199.978 38.2517C198.626 38.2517 197.523 38.8417 196.933 39.7552V33.7795H194.592V47.9385H196.914ZM208.596 48.1859C210.062 48.1859 211.337 47.5198 211.736 46.5493L211.908 47.9385H213.944V42.2292C213.944 39.622 212.383 38.2517 209.852 38.2517C207.302 38.2517 205.627 39.5839 205.627 41.6202H207.607C207.607 40.6306 208.368 40.0597 209.738 40.0597C210.918 40.0597 211.679 40.5735 211.679 41.8486V42.0579L208.863 42.2673C206.636 42.4386 205.38 43.5233 205.38 45.2551C205.38 47.025 206.598 48.1859 208.596 48.1859ZM209.357 46.4351C208.311 46.4351 207.74 46.0164 207.74 45.16C207.74 44.3988 208.292 43.923 209.738 43.7898L211.698 43.6375V44.1323C211.698 45.5787 210.785 46.4351 209.357 46.4351ZM215.502 45.0839C215.502 46.9299 216.986 48.1859 219.327 48.1859C221.649 48.1859 223.266 47.006 223.266 45.1029C223.266 43.6565 222.467 42.9334 220.887 42.5718L219.194 42.1721C218.394 41.9818 217.976 41.6393 217.976 41.1064C217.976 40.4022 218.508 39.9836 219.422 39.9836C220.316 39.9836 220.849 40.4974 220.868 41.2967H223.076C223.057 39.4697 221.63 38.2517 219.517 38.2517C217.348 38.2517 215.787 39.3555 215.787 41.2015C215.787 42.705 216.605 43.5043 218.299 43.8849L219.993 44.2846C220.83 44.4749 221.078 44.8174 221.078 45.2932C221.078 45.9783 220.488 46.416 219.403 46.416C218.337 46.416 217.728 45.9022 217.709 45.0839H215.502ZM229.24 48.1859C231.695 48.1859 233.408 46.9489 233.807 44.8936H231.657C231.39 45.788 230.553 46.2828 229.278 46.2828C227.736 46.2828 226.861 45.4455 226.69 43.7898L233.769 43.7707V43.0666C233.769 40.1358 231.98 38.2517 229.164 38.2517C226.404 38.2517 224.482 40.2881 224.482 43.2379C224.482 46.1496 226.442 48.1859 229.24 48.1859ZM229.183 40.1548C230.572 40.1548 231.466 41.0112 231.466 42.3053H226.747C226.975 40.8971 227.813 40.1548 229.183 40.1548Z" fill="white"/>
<path d="M116.69 73.2822L117.502 70.9985H121.358L122.183 73.2822H123.49L120.128 64.1092H118.745L115.395 73.2822H116.69ZM119.278 66.0885C119.341 65.8982 119.405 65.6825 119.43 65.5556C119.455 65.6952 119.519 65.9108 119.582 66.0885L120.991 69.92H117.882L119.278 66.0885ZM128.621 67.0781V70.3514C128.621 71.6836 128.025 72.3814 126.934 72.3814C126.02 72.3814 125.449 71.8739 125.449 70.5417V67.0781H124.257V70.935C124.257 72.4575 125.069 73.4344 126.515 73.4344C127.429 73.4344 128.253 72.9904 128.608 72.3433L128.735 73.2822H129.801V67.0781H128.621ZM133.282 73.2822V68.0804H134.5V67.0781H133.282V65.1369H132.09V67.0781H130.872V68.0804H132.09V73.2822H133.282ZM135.103 70.1738C135.103 72.0896 136.473 73.4344 138.338 73.4344C140.19 73.4344 141.56 72.0896 141.56 70.1738C141.56 68.258 140.19 66.9131 138.338 66.9131C136.473 66.9131 135.103 68.258 135.103 70.1738ZM136.308 70.1738C136.308 68.8797 137.133 67.9789 138.338 67.9789C139.53 67.9789 140.368 68.8797 140.368 70.1738C140.368 71.4679 139.53 72.3687 138.338 72.3687C137.133 72.3687 136.308 71.4679 136.308 70.1738ZM147.796 64.1092H146.553V73.2822H151.831V72.1276H147.796V64.1092ZM152.449 70.1738C152.449 72.0896 153.819 73.4344 155.684 73.4344C157.536 73.4344 158.906 72.0896 158.906 70.1738C158.906 68.258 157.536 66.9131 155.684 66.9131C153.819 66.9131 152.449 68.258 152.449 70.1738ZM153.654 70.1738C153.654 68.8797 154.479 67.9789 155.684 67.9789C156.876 67.9789 157.714 68.8797 157.714 70.1738C157.714 71.4679 156.876 72.3687 155.684 72.3687C154.479 72.3687 153.654 71.4679 153.654 70.1738ZM162.041 73.4344C163.043 73.4344 163.893 72.9904 164.21 72.2799L164.337 73.2822H165.352V69.3872C165.352 67.7124 164.312 66.9005 162.777 66.9005C161.178 66.9005 160.112 67.7505 160.112 69.0446H161.153C161.153 68.2961 161.724 67.852 162.726 67.852C163.563 67.852 164.185 68.2199 164.185 69.2603V69.4379L162.231 69.5902C160.772 69.7044 159.922 70.4148 159.922 71.5567C159.922 72.6859 160.709 73.4344 162.041 73.4344ZM162.383 72.5083C161.61 72.5083 161.127 72.1784 161.127 71.5186C161.127 70.9097 161.559 70.5037 162.612 70.4022L164.198 70.2753V70.6052C164.198 71.7724 163.513 72.5083 162.383 72.5083ZM168.197 73.2822V69.9962C168.197 68.7909 168.844 67.9916 169.96 67.9916C170.874 67.9916 171.457 68.4991 171.457 69.7551V73.2822H172.65V69.4887C172.65 67.9028 171.901 66.9005 170.265 66.9005C169.389 66.9005 168.603 67.3191 168.209 68.0296L168.082 67.0781H167.004V73.2822H168.197Z" fill="#676A84"/>
<path d="M98.3268 53.8418C98.3268 73.987 81.9959 90.3179 61.8507 90.3179C41.7056 90.3179 25.3747 73.987 25.3747 53.8418C25.3747 33.6966 41.7056 17.3658 61.8507 17.3658C81.9959 17.3658 98.3268 33.6966 98.3268 53.8418ZM33.0327 53.8418C33.0327 69.7576 45.9349 82.6599 61.8507 82.6599C77.7665 82.6599 90.6688 69.7576 90.6688 53.8418C90.6688 37.926 77.7665 25.0238 61.8507 25.0238C45.9349 25.0238 33.0327 37.926 33.0327 53.8418Z" fill="#EDEFFE"/>
<path d="M32.8938 38.7645C31.0181 37.7878 28.6852 38.5112 27.9105 40.4789C25.4634 46.694 24.761 53.4874 25.9183 60.1156C27.2959 68.006 31.2325 75.2237 37.1203 80.6543C43.008 86.0848 50.5196 89.4264 58.4955 90.1632C66.4714 90.9 74.468 88.991 81.251 84.7308C88.0339 80.4707 93.2261 74.0964 96.0259 66.5918C98.8256 59.0872 99.0774 50.8698 96.7423 43.2079C94.4072 35.546 89.615 28.8657 83.1056 24.1984C77.6375 20.2776 71.213 17.9604 64.5518 17.4659C62.4429 17.3093 60.7782 19.0966 60.8435 21.2103V21.2103C60.9087 23.324 62.6818 24.9582 64.7855 25.1735C69.7613 25.6829 74.5426 27.4817 78.6432 30.4219C83.786 34.1094 87.5721 39.3871 89.417 45.4404C91.2618 51.4937 91.0629 57.986 88.8509 63.915C86.6389 69.844 82.5369 74.8801 77.178 78.2458C71.8191 81.6116 65.5013 83.1198 59.1999 82.5377C52.8986 81.9556 46.964 79.3156 42.3123 75.0251C37.6607 70.7346 34.5506 65.0323 33.4621 58.7984C32.5943 53.8279 33.0502 48.7398 34.7521 44.0364C35.4716 42.0479 34.7695 39.7411 32.8938 38.7645V38.7645Z" fill="url(#paint0_linear_1_97)"/>
<circle cx="318.24" cy="53.3131" r="16.9164" fill="#EAEBF8"/>
<path d="M312.602 53.3131H323.879" stroke="#FE6789" stroke-width="2.11455" stroke-linecap="round" stroke-linejoin="round"/>
<path d="M318.945 48.3792L323.879 53.3131L318.945 58.2471" stroke="#FE6789" stroke-width="2.11455" stroke-linecap="round" stroke-linejoin="round"/>
<path d="M70.933 51.4165L70.371 50.0115L69.3745 47.52C68.519 45.3815 66.4785 44 64.175 44H57.825C55.522 44 53.481 45.3815 52.6255 47.52L51.629 50.0115L51.067 51.4165C49.861 51.875 49 53.033 49 54.4V56.8C49 57.606 49.308 58.3335 49.8 58.8965V61.6C49.8 62.4835 50.5165 63.2 51.4 63.2H53C53.8835 63.2 54.6 62.4835 54.6 61.6V60H67.4V61.6C67.4 62.4835 68.1165 63.2 69 63.2H70.6C71.4835 63.2 72.2 62.4835 72.2 61.6V58.8965C72.692 58.334 73 57.6065 73 56.8V54.4C73 53.033 72.139 51.875 70.933 51.4165ZM55.5965 48.7085C55.961 47.7975 56.8435 47.2 57.825 47.2H64.175C65.1565 47.2 66.039 47.7975 66.4035 48.7085L67.4 51.2H54.6L55.5965 48.7085ZM53 56.79C52.04 56.79 51.4 56.152 51.4 55.195C51.4 54.238 52.04 53.6 53 53.6C53.96 53.6 55.4 55.0355 55.4 55.9925C55.4 56.9495 53.96 56.79 53 56.79ZM69 56.79C68.04 56.79 66.6 56.9495 66.6 55.9925C66.6 55.0355 68.04 53.6 69 53.6C69.96 53.6 70.6 54.238 70.6 55.195C70.6 56.152 69.96 56.79 69 56.79Z" fill="white"/>
<defs>
<linearGradient id="paint0_linear_1_97" x1="62.3794" y1="25.2953" x2="6.87232" y2="125.737" gradientUnits="userSpaceOnUse">
<stop stop-color="#FE6789"/>
<stop offset="1" stop-color="#E56F8C"/>
</linearGradient>
</defs>
</svg>
