<svg width="361" height="108" viewBox="0 0 361 108" fill="none" xmlns="http://www.w3.org/2000/svg">
<rect x="0.468506" y="0.44928" width="360.531" height="106.785" rx="25.3746" fill="#1C1F37"/>
<path d="M119.689 47.9385V42.0389H125.855V47.9385H128.291V34.0269H125.855V39.7742H119.689V34.0269H117.253V47.9385H119.689ZM130.483 43.2188C130.483 46.1496 132.596 48.1669 135.508 48.1669C138.419 48.1669 140.532 46.1496 140.532 43.2188C140.532 40.2881 138.419 38.2708 135.508 38.2708C132.596 38.2708 130.483 40.2881 130.483 43.2188ZM132.805 43.2188C132.805 41.506 133.909 40.3452 135.508 40.3452C137.106 40.3452 138.21 41.506 138.21 43.2188C138.21 44.9316 137.106 46.0925 135.508 46.0925C133.909 46.0925 132.805 44.9316 132.805 43.2188ZM148.524 38.5372V43.4662C148.524 45.2551 147.82 46.1115 146.355 46.1115C145.061 46.1115 144.357 45.3884 144.357 43.5994V38.5372H142.035V44.4178C142.035 46.7205 143.31 48.1859 145.479 48.1859C146.736 48.1859 147.953 47.5769 148.524 46.6825L148.696 47.9385H150.846V38.5372H148.524ZM152.335 45.0839C152.335 46.9299 153.82 48.1859 156.16 48.1859C158.482 48.1859 160.1 47.006 160.1 45.1029C160.1 43.6565 159.301 42.9334 157.721 42.5718L156.027 42.1721C155.228 41.9818 154.809 41.6393 154.809 41.1064C154.809 40.4022 155.342 39.9836 156.256 39.9836C157.15 39.9836 157.683 40.4974 157.702 41.2967H159.91C159.891 39.4697 158.463 38.2517 156.351 38.2517C154.181 38.2517 152.621 39.3555 152.621 41.2015C152.621 42.705 153.439 43.5043 155.133 43.8849L156.827 44.2846C157.664 44.4749 157.911 44.8174 157.911 45.2932C157.911 45.9783 157.321 46.416 156.237 46.416C155.171 46.416 154.562 45.9022 154.543 45.0839H152.335ZM166.074 48.1859C168.529 48.1859 170.241 46.9489 170.641 44.8936H168.49C168.224 45.788 167.387 46.2828 166.112 46.2828C164.57 46.2828 163.695 45.4455 163.523 43.7898L170.603 43.7707V43.0666C170.603 40.1358 168.814 38.2517 165.997 38.2517C163.238 38.2517 161.316 40.2881 161.316 43.2379C161.316 46.1496 163.276 48.1859 166.074 48.1859ZM166.016 40.1548C167.406 40.1548 168.3 41.0112 168.3 42.3053H163.58C163.809 40.8971 164.646 40.1548 166.016 40.1548ZM171.738 45.0839C171.738 46.9299 173.222 48.1859 175.563 48.1859C177.885 48.1859 179.503 47.006 179.503 45.1029C179.503 43.6565 178.703 42.9334 177.124 42.5718L175.43 42.1721C174.631 41.9818 174.212 41.6393 174.212 41.1064C174.212 40.4022 174.745 39.9836 175.658 39.9836C176.553 39.9836 177.086 40.4974 177.105 41.2967H179.312C179.293 39.4697 177.866 38.2517 175.753 38.2517C173.584 38.2517 172.023 39.3555 172.023 41.2015C172.023 42.705 172.842 43.5043 174.535 43.8849L176.229 44.2846C177.067 44.4749 177.314 44.8174 177.314 45.2932C177.314 45.9783 176.724 46.416 175.639 46.416C174.574 46.416 173.965 45.9022 173.946 45.0839H171.738ZM192.242 43.1427C195.021 43.1427 196.848 41.2586 196.848 38.5753C196.848 35.8538 195.04 34.0269 192.242 34.0269H186.742V47.9385H189.178V43.1427H192.242ZM191.767 36.1964C193.384 36.1964 194.298 37.0338 194.298 38.5562C194.298 40.0787 193.403 40.9732 191.728 40.9732H189.178V36.1964H191.767ZM204.93 38.5372V43.4662C204.93 45.2551 204.226 46.1115 202.76 46.1115C201.466 46.1115 200.762 45.3884 200.762 43.5994V38.5372H198.44V44.4178C198.44 46.7205 199.715 48.1859 201.885 48.1859C203.141 48.1859 204.359 47.5769 204.93 46.6825L205.101 47.9385H207.252V38.5372H204.93ZM215.549 38.4991C215.169 38.404 214.845 38.3659 214.521 38.3659C213.265 38.3659 212.371 38.994 211.971 39.9265L211.838 38.5562H209.65V47.9385H211.971V43.3711C211.971 41.5441 213.018 40.6496 214.693 40.6496H215.549V38.4991ZM216.253 43.2188C216.253 46.2067 218.118 48.1859 220.973 48.1859C223.428 48.1859 225.255 46.6825 225.54 44.4939H223.199C222.952 45.5216 222.133 46.0925 220.973 46.0925C219.488 46.0925 218.575 44.9887 218.575 43.2188C218.575 41.4489 219.564 40.3261 221.049 40.3261C222.152 40.3261 222.933 40.878 223.199 41.9438H225.521C225.274 39.6791 223.523 38.2517 220.954 38.2517C218.175 38.2517 216.253 40.3071 216.253 43.2188ZM229.59 47.9385V42.8001C229.59 41.3919 230.446 40.3642 231.912 40.3642C233.092 40.3642 233.872 41.1254 233.872 42.705V47.9385H236.194V42.1531C236.194 39.7171 234.976 38.2517 232.654 38.2517C231.303 38.2517 230.199 38.8417 229.609 39.7552V33.7795H227.268V47.9385H229.59ZM241.272 48.1859C242.738 48.1859 244.013 47.5198 244.412 46.5493L244.584 47.9385H246.62V42.2292C246.62 39.622 245.06 38.2517 242.528 38.2517C239.978 38.2517 238.304 39.5839 238.304 41.6202H240.283C240.283 40.6306 241.044 40.0597 242.414 40.0597C243.594 40.0597 244.355 40.5735 244.355 41.8486V42.0579L241.539 42.2673C239.312 42.4386 238.056 43.5233 238.056 45.2551C238.056 47.025 239.274 48.1859 241.272 48.1859ZM242.034 46.4351C240.987 46.4351 240.416 46.0164 240.416 45.16C240.416 44.3988 240.968 43.923 242.414 43.7898L244.374 43.6375V44.1323C244.374 45.5787 243.461 46.4351 242.034 46.4351ZM248.178 45.0839C248.178 46.9299 249.662 48.1859 252.003 48.1859C254.325 48.1859 255.942 47.006 255.942 45.1029C255.942 43.6565 255.143 42.9334 253.564 42.5718L251.87 42.1721C251.07 41.9818 250.652 41.6393 250.652 41.1064C250.652 40.4022 251.185 39.9836 252.098 39.9836C252.993 39.9836 253.525 40.4974 253.545 41.2967H255.752C255.733 39.4697 254.306 38.2517 252.193 38.2517C250.024 38.2517 248.463 39.3555 248.463 41.2015C248.463 42.705 249.282 43.5043 250.975 43.8849L252.669 44.2846C253.506 44.4749 253.754 44.8174 253.754 45.2932C253.754 45.9783 253.164 46.416 252.079 46.416C251.013 46.416 250.404 45.9022 250.385 45.0839H248.178ZM261.916 48.1859C264.371 48.1859 266.084 46.9489 266.484 44.8936H264.333C264.067 45.788 263.229 46.2828 261.954 46.2828C260.413 46.2828 259.537 45.4455 259.366 43.7898L266.445 43.7707V43.0666C266.445 40.1358 264.657 38.2517 261.84 38.2517C259.08 38.2517 257.158 40.2881 257.158 43.2379C257.158 46.1496 259.119 48.1859 261.916 48.1859ZM261.859 40.1548C263.248 40.1548 264.143 41.0112 264.143 42.3053H259.423C259.651 40.8971 260.489 40.1548 261.859 40.1548Z" fill="white"/>
<path d="M117.158 73.2822L117.97 70.9985H121.827L122.652 73.2822H123.958L120.596 64.1092H119.213L115.864 73.2822H117.158ZM119.746 66.0885C119.81 65.8982 119.873 65.6825 119.899 65.5556C119.924 65.6952 119.987 65.9108 120.051 66.0885L121.459 69.92H118.351L119.746 66.0885ZM125.558 65.6063C125.99 65.6063 126.345 65.2511 126.345 64.8197C126.345 64.3757 125.99 64.0331 125.558 64.0331C125.127 64.0331 124.772 64.3757 124.772 64.8197C124.772 65.2511 125.127 65.6063 125.558 65.6063ZM124.975 73.2822H126.167V67.0781H124.975V73.2822ZM131.451 67.0273C131.21 66.9766 131.033 66.9512 130.817 66.9512C129.967 66.9512 129.345 67.3826 129.092 68.0296L129.015 67.0908H127.899V73.2822H129.092V69.9962C129.092 68.8036 129.789 68.1184 130.918 68.1184H131.451V67.0273ZM133.648 73.2822L133.737 72.153C134.143 73.0031 134.968 73.4344 135.945 73.4344C137.746 73.4344 138.863 72.0896 138.863 70.2118C138.863 68.2961 137.797 66.9005 136.021 66.9005C135.006 66.9005 134.169 67.3318 133.763 68.1438V63.9443H132.57V73.2822H133.648ZM133.775 70.1611C133.775 68.8924 134.511 67.9789 135.729 67.9789C136.947 67.9789 137.67 68.8924 137.67 70.1611C137.67 71.4425 136.947 72.356 135.729 72.356C134.511 72.356 133.775 71.4552 133.775 70.1611ZM141.37 73.2822V69.9962C141.37 68.7909 142.017 67.9916 143.133 67.9916C144.047 67.9916 144.631 68.4991 144.631 69.7551V73.2822H145.823V69.4887C145.823 67.9028 145.075 66.9005 143.438 66.9005C142.563 66.9005 141.776 67.3191 141.383 68.0296L141.256 67.0781H140.177V73.2822H141.37ZM148.553 73.2822L148.642 72.153C149.048 73.0031 149.873 73.4344 150.85 73.4344C152.651 73.4344 153.768 72.0896 153.768 70.2118C153.768 68.2961 152.702 66.9005 150.926 66.9005C149.911 66.9005 149.074 67.3318 148.668 68.1438V63.9443H147.475V73.2822H148.553ZM148.68 70.1611C148.68 68.8924 149.416 67.9789 150.634 67.9789C151.852 67.9789 152.575 68.8924 152.575 70.1611C152.575 71.4425 151.852 72.356 150.634 72.356C149.416 72.356 148.68 71.4552 148.68 70.1611ZM159.744 73.2695V69.8947C159.744 68.8289 160.366 67.9916 161.521 67.9916C162.409 67.9916 163.005 68.4991 163.005 69.7551V73.2822H164.198V69.4887C164.198 67.9028 163.436 66.9005 161.85 66.9005C160.886 66.9005 160.138 67.3572 159.744 68.0296V63.9443H158.552V73.2695H159.744ZM165.443 70.1738C165.443 72.0896 166.814 73.4344 168.679 73.4344C170.531 73.4344 171.901 72.0896 171.901 70.1738C171.901 68.258 170.531 66.9131 168.679 66.9131C166.814 66.9131 165.443 68.258 165.443 70.1738ZM166.649 70.1738C166.649 68.8797 167.473 67.9789 168.679 67.9789C169.871 67.9789 170.709 68.8797 170.709 70.1738C170.709 71.4679 169.871 72.3687 168.679 72.3687C167.473 72.3687 166.649 71.4679 166.649 70.1738ZM174.414 73.2822V69.6029C174.414 68.6132 175.01 67.9916 175.911 67.9916C176.748 67.9916 177.281 68.5244 177.281 69.5014V73.2822H178.461V69.6029C178.461 68.6132 179.058 67.9789 179.958 67.9789C180.796 67.9789 181.341 68.5371 181.341 69.514V73.2822H182.509V69.2222C182.509 67.7886 181.646 66.9005 180.225 66.9005C179.261 66.9005 178.512 67.3826 178.22 68.1565C177.903 67.3826 177.218 66.9005 176.254 66.9005C175.378 66.9005 174.718 67.3065 174.401 67.8901L174.287 67.0781H173.221V73.2822H174.414ZM186.839 73.4344C188.374 73.4344 189.414 72.6859 189.719 71.3537H188.602C188.399 72.0642 187.79 72.4448 186.864 72.4448C185.684 72.4448 184.999 71.7216 184.91 70.4148L189.706 70.4022V69.9581C189.706 68.1184 188.552 66.9005 186.788 66.9005C184.986 66.9005 183.756 68.2453 183.756 70.1865C183.756 72.1149 185.012 73.4344 186.839 73.4344ZM186.788 67.9028C187.841 67.9028 188.513 68.5879 188.513 69.6155H184.936C185.088 68.5244 185.748 67.9028 186.788 67.9028Z" fill="#676A84"/>
<path d="M98.7953 53.8418C98.7953 73.987 82.4644 90.3179 62.3193 90.3179C42.1741 90.3179 25.8432 73.987 25.8432 53.8418C25.8432 33.6966 42.1741 17.3658 62.3193 17.3658C82.4644 17.3658 98.7953 33.6966 98.7953 53.8418ZM33.5012 53.8418C33.5012 69.7576 46.4035 82.6599 62.3193 82.6599C78.235 82.6599 91.1373 69.7576 91.1373 53.8418C91.1373 37.926 78.235 25.0238 62.3193 25.0238C46.4035 25.0238 33.5012 37.926 33.5012 53.8418Z" fill="#EDEFFE"/>
<path d="M33.3623 38.7645C31.4867 37.7878 29.1538 38.5112 28.379 40.4789C25.932 46.694 25.2295 53.4874 26.3868 60.1156C27.7645 68.006 31.701 75.2237 37.5888 80.6543C43.4766 86.0848 50.9882 89.4264 58.964 90.1632C66.9399 90.9 74.9365 88.991 81.7195 84.7309C88.5025 80.4707 93.6946 74.0964 96.4944 66.5918C99.2942 59.0872 99.546 50.8698 97.2108 43.2079C94.8757 35.546 90.0835 28.8657 83.5741 24.1984C78.106 20.2776 71.6815 17.9604 65.0203 17.4659C62.9114 17.3093 61.2468 19.0966 61.312 21.2103C61.3773 23.324 63.1503 24.9582 65.2541 25.1735C70.2299 25.6829 75.0112 27.4817 79.1117 30.4219C84.2546 34.1094 88.0406 39.3871 89.8855 45.4404C91.7304 51.4937 91.5314 57.986 89.3195 63.915C87.1075 69.844 83.0054 74.8801 77.6465 78.2458C72.2876 81.6115 65.9698 83.1198 59.6685 82.5377C53.3671 81.9556 47.4325 79.3156 42.7809 75.0251C38.1292 70.7346 35.0191 65.0323 33.9307 58.7984C33.0628 53.8279 33.5187 48.7398 35.2206 44.0364C35.9401 42.0479 35.238 39.7411 33.3623 38.7645Z" fill="url(#paint0_linear_1_113)"/>
<circle cx="318.709" cy="53.3131" r="16.9164" fill="#EAEBF8"/>
<path d="M313.07 53.3131H324.348" stroke="#4495C7" stroke-width="2.11455" stroke-linecap="round" stroke-linejoin="round"/>
<path d="M319.414 48.3792L324.348 53.3131L319.414 58.2471" stroke="#4495C7" stroke-width="2.11455" stroke-linecap="round" stroke-linejoin="round"/>
<path d="M62 42L52 49.3333V64H58.25V55.4444H65.75V64H72V49.3333L62 42Z" fill="white"/>
<defs>
<linearGradient id="paint0_linear_1_113" x1="62.8479" y1="25.2953" x2="7.34086" y2="125.737" gradientUnits="userSpaceOnUse">
<stop stop-color="#4495C7"/>
<stop offset="1" stop-color="#4495C7"/>
</linearGradient>
</defs>
</svg>
