<svg width="14" height="14" viewBox="0 0 14 14" fill="none" xmlns="http://www.w3.org/2000/svg">
<path d="M4.01654 2.83325C3.64148 2.33915 3.73496 1.62453 4.2859 1.33945C5.37945 0.773591 6.61805 0.524355 7.85979 0.632721C9.47707 0.77386 10.984 1.51152 12.0876 2.70222C13.1911 3.89292 13.8123 5.45152 13.8303 7.07486C13.8483 8.69819 13.2618 10.2702 12.185 11.4851C11.1081 12.7 9.6179 13.4709 8.00414 13.6478C6.39039 13.8248 4.76849 13.3952 3.45394 12.4426C2.13939 11.49 1.22618 10.0824 0.891936 8.49377C0.635307 7.27401 0.734069 6.01445 1.16457 4.86089C1.38147 4.27972 2.0797 4.10113 2.61525 4.41417C3.15079 4.7272 3.31454 5.41509 3.15069 6.01339C2.97182 6.66658 2.94858 7.35815 3.09019 8.03127C3.30962 9.07419 3.90913 9.99822 4.77212 10.6236C5.6351 11.249 6.69985 11.531 7.75926 11.4148C8.81867 11.2987 9.79699 10.7926 10.5039 9.99501C11.2109 9.19746 11.5959 8.16547 11.584 7.09977C11.5722 6.03408 11.1644 5.01088 10.44 4.2292C9.71552 3.44752 8.72622 2.96326 7.66449 2.8706C6.97925 2.8108 6.29546 2.91688 5.66846 3.17287C5.09416 3.40734 4.39159 3.32735 4.01654 2.83325Z" fill="white"/>
</svg>
