<svg width="18" height="18" viewBox="0 0 18 18" fill="none" xmlns="http://www.w3.org/2000/svg">
<path d="M7.74762 12.4447H3.02208" stroke="#757590" stroke-width="1.5" stroke-linecap="round" stroke-linejoin="round"/>
<path d="M9.85536 5.17528H14.5809" stroke="#757590" stroke-width="1.5" stroke-linecap="round" stroke-linejoin="round"/>
<path fill-rule="evenodd" clip-rule="evenodd" d="M6.54472 5.13469C6.54472 4.16295 5.7511 3.375 4.77236 3.375C3.79362 3.375 3 4.16295 3 5.13469C3 6.10643 3.79362 6.89438 4.77236 6.89438C5.7511 6.89438 6.54472 6.10643 6.54472 5.13469Z" fill="#757590" stroke="#757590" stroke-width="1.5" stroke-linecap="round" stroke-linejoin="round"/>
<path fill-rule="evenodd" clip-rule="evenodd" d="M15 12.4153C15 11.4436 14.207 10.6556 13.2283 10.6556C12.2489 10.6556 11.4553 11.4436 11.4553 12.4153C11.4553 13.387 12.2489 14.175 13.2283 14.175C14.207 14.175 15 13.387 15 12.4153Z" stroke="#757590" stroke-width="1.5" stroke-linecap="round" stroke-linejoin="round"/>
</svg>
