<svg width="66" height="31" viewBox="0 0 66 31" fill="none" xmlns="http://www.w3.org/2000/svg">
<path d="M16.7624 9.8974C13.6688 9.8974 11.1656 12.4115 11.1656 15.5185C11.1656 18.6255 13.6688 21.1396 16.7624 21.1396C19.856 21.1396 22.3593 18.6255 22.3593 15.5185C22.3593 12.4352 19.856 9.8974 16.7624 9.8974Z" fill="white"/>
<path d="M16.8212 9.8974C13.6951 9.8974 11.1656 12.4269 11.1656 15.553C11.1656 18.6791 13.6951 21.2086 16.8212 21.2086C19.9473 21.2086 22.4768 18.6791 22.4768 15.553C22.4768 12.4508 19.9473 9.8974 16.8212 9.8974ZM16.6064 20.8506C13.6951 20.8506 11.3327 18.4882 11.3327 15.5768C11.3327 12.6655 13.6951 10.3031 16.6064 10.3031C19.5177 10.3031 21.8802 12.6655 21.8802 15.5768C21.9041 18.4882 19.5416 20.8506 16.6064 20.8506Z" fill="white"/>
<path d="M17.4416 8.03609C17.4416 8.34632 17.203 8.60881 16.9166 8.60881C16.6303 8.60881 16.3916 8.34632 16.3916 8.03609V7.03384C16.3916 6.72362 16.6303 6.46112 16.9166 6.46112C17.203 6.46112 17.4416 6.72362 17.4416 7.03384V8.03609Z" fill="white"/>
<path d="M17.4416 23.4995C17.4416 23.8097 17.203 24.0722 16.9166 24.0722C16.6303 24.0722 16.3916 23.8097 16.3916 23.4995V22.4972C16.3916 22.187 16.6303 21.9245 16.9166 21.9245C17.203 21.9245 17.4416 22.187 17.4416 22.4972V23.4995Z" fill="white"/>
<path d="M24.1233 15.7916C23.8131 15.7916 23.5506 15.553 23.5506 15.2666C23.5506 14.9803 23.8131 14.7416 24.1233 14.7416H25.1256C25.4358 14.7416 25.6983 14.9803 25.6983 15.2666C25.6983 15.553 25.4358 15.7916 25.1256 15.7916H24.1233Z" fill="white"/>
<path d="M8.65997 15.7916C8.34975 15.7916 8.08725 15.553 8.08725 15.2666C8.08725 14.9803 8.34975 14.7416 8.65997 14.7416H9.66223C9.97245 14.7416 10.2349 14.9803 10.2349 15.2666C10.2349 15.553 9.97245 15.7916 9.66223 15.7916H8.65997Z" fill="white"/>
<path d="M22.3813 10.5179C22.1665 10.7327 21.8086 10.7565 21.5938 10.5418C21.3791 10.327 21.4029 9.9929 21.6177 9.75427L22.3336 9.03837C22.5484 8.8236 22.9063 8.79974 23.1211 9.01451C23.3358 9.22928 23.312 9.56336 23.0972 9.802L22.3813 10.5179Z" fill="white"/>
<path d="M11.452 21.4711C11.2372 21.6858 10.8792 21.7097 10.6645 21.4949C10.4497 21.2802 10.4736 20.9461 10.6883 20.7075L11.4042 19.9916C11.619 19.7768 11.977 19.7529 12.1917 19.9677C12.4065 20.1825 12.3826 20.5165 12.1679 20.7552L11.452 21.4711Z" fill="white"/>
<path d="M21.6415 20.7552C21.4268 20.5404 21.4029 20.1825 21.6177 19.9677C21.8324 19.7529 22.1665 19.7768 22.4051 19.9916L23.121 20.7075C23.3358 20.9222 23.3597 21.2802 23.1449 21.4949C22.9301 21.7097 22.5961 21.6858 22.3574 21.4711L21.6415 20.7552Z" fill="white"/>
<path d="M10.7122 9.802C10.4974 9.58723 10.4735 9.22928 10.6883 9.01451C10.9031 8.79974 11.2372 8.8236 11.4758 9.03837L12.1917 9.75427C12.4065 9.96904 12.4303 10.327 12.2156 10.5418C12.0008 10.7565 11.6667 10.7327 11.4281 10.5179L10.7122 9.802Z" fill="white"/>
<circle cx="48.8351" cy="15.3943" r="12.7616" fill="#D9D9D9"/>
<circle cx="48.8351" cy="15.3943" r="12.7616" fill="url(#paint0_linear_1_68)"/>
<rect x="0.439818" y="0.243033" width="64.7589" height="30.0473" rx="15.0236" stroke="#4C4D4F" stroke-width="0.325422"/>
<defs>
<linearGradient id="paint0_linear_1_68" x1="35.461" y1="11.1404" x2="61.743" y2="11.7317" gradientUnits="userSpaceOnUse">
<stop stop-color="#3B3171"/>
<stop offset="1" stop-color="#4C3590"/>
</linearGradient>
</defs>
</svg>
