<svg width="362" height="108" viewBox="0 0 362 108" fill="none" xmlns="http://www.w3.org/2000/svg">
<rect x="0.734253" y="0.765747" width="360.531" height="106.785" rx="25.3746" fill="#1C1F37"/>
<path d="M68.5946 21.5092H67.3512V30.6821H68.5946V21.5092ZM71.7233 30.6821V27.3961C71.7233 26.1908 72.3703 25.3915 73.4868 25.3915C74.4003 25.3915 74.9839 25.899 74.9839 27.1551V30.6821H76.1765V26.8886C76.1765 25.3027 75.428 24.3004 73.7913 24.3004C72.9159 24.3004 72.1293 24.7191 71.736 25.4296L71.6091 24.478H70.5307V30.6821H71.7233ZM77.4224 27.5864C77.4224 29.5403 78.6277 30.8344 80.4546 30.8344C81.9517 30.8344 83.1063 29.9336 83.3473 28.5887H82.1547C81.939 29.3246 81.3047 29.7686 80.4546 29.7686C79.3255 29.7686 78.6023 28.9059 78.6023 27.5737C78.6023 26.2289 79.3762 25.3661 80.5054 25.3661C81.3047 25.3661 81.939 25.7848 82.142 26.5714H83.3346C83.119 25.1885 82.0279 24.3004 80.4673 24.3004C78.653 24.3004 77.4224 25.6453 77.4224 27.5864ZM84.1997 27.5737C84.1997 29.4895 85.5699 30.8344 87.4349 30.8344C89.2873 30.8344 90.6575 29.4895 90.6575 27.5737C90.6575 25.6579 89.2873 24.3131 87.4349 24.3131C85.5699 24.3131 84.1997 25.6579 84.1997 27.5737ZM85.405 27.5737C85.405 26.2796 86.2296 25.3788 87.4349 25.3788C88.6275 25.3788 89.4649 26.2796 89.4649 27.5737C89.4649 28.8678 88.6275 29.7686 87.4349 29.7686C86.2296 29.7686 85.405 28.8678 85.405 27.5737ZM93.1703 30.6821V27.0028C93.1703 26.0132 93.7666 25.3915 94.6674 25.3915C95.5048 25.3915 96.0376 25.9244 96.0376 26.9013V30.6821H97.2176V27.0028C97.2176 26.0132 97.8139 25.3788 98.7147 25.3788C99.552 25.3788 100.098 25.9371 100.098 26.914V30.6821H101.265V26.6222C101.265 25.1885 100.402 24.3004 98.9811 24.3004C98.0169 24.3004 97.2683 24.7825 96.9765 25.5565C96.6593 24.7825 95.9742 24.3004 95.01 24.3004C94.1345 24.3004 93.4748 24.7064 93.1576 25.29L93.0434 24.478H91.9777V30.6821H93.1703ZM105.595 30.8344C107.13 30.8344 108.171 30.0858 108.475 28.7537H107.359C107.156 29.4641 106.547 29.8448 105.62 29.8448C104.441 29.8448 103.755 29.1216 103.667 27.8148L108.462 27.8021V27.358C108.462 25.5184 107.308 24.3004 105.544 24.3004C103.743 24.3004 102.512 25.6453 102.512 27.5864C102.512 29.5149 103.768 30.8344 105.595 30.8344ZM105.544 25.3027C106.597 25.3027 107.27 25.9878 107.27 27.0155H103.692C103.844 25.9244 104.504 25.3027 105.544 25.3027Z" fill="#676A84"/>
<path d="M50.1726 76.7828H52.2893V74.4462C55.9728 74.0339 58.3369 71.7248 58.3369 68.3711C58.3369 65.4572 56.7425 63.7529 53.2239 62.9832L52.2893 62.7633V56.8531C53.7187 57.1555 54.5434 58.1176 54.5983 59.602H58.007C57.897 56.3033 55.7529 54.1317 52.2893 53.7743V51.4378H50.1726V53.7743C46.5165 54.1592 44.0975 56.4683 44.0975 59.6845C44.0975 62.7083 45.8293 64.6326 49.2929 65.3748L50.1726 65.5672V71.4224C48.3858 71.2025 47.3687 70.2129 47.3412 68.646H43.8226C43.905 71.9997 46.3516 74.2263 50.1726 74.5012V76.7828ZM50.0626 62.2685C48.3033 61.8837 47.5336 61.0315 47.5336 59.5746C47.5336 58.0901 48.5232 57.1005 50.1726 56.8256V62.296L50.0626 62.2685ZM52.4817 66.062C54.131 66.4194 54.9282 67.2715 54.9282 68.6735C54.9282 70.0754 53.9386 71.0376 52.2893 71.3674V66.007L52.4817 66.062ZM67.4027 74.5012C71.8835 74.5012 74.9348 71.5324 74.9348 67.1891C74.9348 63.2306 72.2683 60.5092 68.2549 60.5092C66.8804 60.5092 65.6709 60.8666 64.7088 61.4988L65.7809 57.3204H73.7252V54.0767H63.2519L60.7778 64.6051L63.8841 65.2648C64.5988 64.2202 66.0008 63.4505 67.5402 63.4505C69.9592 63.4505 71.3612 65.0449 71.3612 67.3815C71.3612 69.828 69.8493 71.3674 67.4852 71.3674C65.2586 71.3674 63.9116 70.0205 63.9116 67.7389H60.4205C60.4205 71.8073 63.1969 74.5012 67.4027 74.5012ZM81.5592 72.9618C81.5592 71.2575 80.5696 70.1304 79.1952 70.1304C77.9582 70.1304 77.106 71.0101 77.106 72.3295C77.106 73.4291 77.9856 74.2263 79.0577 74.2263C79.3876 74.2263 79.635 74.1713 79.8549 74.0614C79.8549 75.0235 78.9203 75.7657 77.6833 75.9856V77.3326C79.9099 77.0577 81.5592 75.2434 81.5592 72.9618ZM83.5352 64.1653C83.5352 70.3778 86.6965 74.5287 92.0294 74.5287C97.3623 74.5287 100.551 70.3778 100.551 64.1653C100.551 57.9252 97.1699 53.6919 92.0294 53.6919C86.8889 53.6919 83.5352 57.9252 83.5352 64.1653ZM86.9989 64.1653C86.9989 59.4096 88.8681 56.7981 92.0294 56.7981C95.2182 56.7981 97.0874 59.4096 97.0874 64.1653C97.0874 68.8109 95.2182 71.4224 92.0294 71.4224C88.8681 71.4224 86.9989 68.8109 86.9989 64.1653ZM102.917 64.1653C102.917 70.3778 106.079 74.5287 111.411 74.5287C116.744 74.5287 119.933 70.3778 119.933 64.1653C119.933 57.9252 116.552 53.6919 111.411 53.6919C106.271 53.6919 102.917 57.9252 102.917 64.1653ZM106.381 64.1653C106.381 59.4096 108.25 56.7981 111.411 56.7981C114.6 56.7981 116.469 59.4096 116.469 64.1653C116.469 68.8109 114.6 71.4224 111.411 71.4224C108.25 71.4224 106.381 68.8109 106.381 64.1653ZM122.299 64.1653C122.299 70.3778 125.461 74.5287 130.793 74.5287C136.126 74.5287 139.315 70.3778 139.315 64.1653C139.315 57.9252 135.934 53.6919 130.793 53.6919C125.653 53.6919 122.299 57.9252 122.299 64.1653ZM125.763 64.1653C125.763 59.4096 127.632 56.7981 130.793 56.7981C133.982 56.7981 135.851 59.4096 135.851 64.1653C135.851 68.8109 133.982 71.4224 130.793 71.4224C127.632 71.4224 125.763 68.8109 125.763 64.1653Z" fill="#4495C7"/>
<path d="M247.397 30.6821V29.5276H243.045V26.6222H246.966V25.5184H243.045V22.6511H247.397V21.5092H241.802V30.6821H247.397ZM249.63 30.6821L251.152 28.4111L252.7 30.6821H254.083L251.964 27.6118L254.121 24.478H252.764L251.229 26.7871L249.655 24.478H248.272L250.429 27.6118L248.26 30.6821H249.63ZM255.116 33.4607H256.309V29.6671C256.715 30.4284 257.54 30.8471 258.529 30.8471C260.369 30.8471 261.409 29.4261 261.409 27.5357C261.409 25.6326 260.305 24.3004 258.529 24.3004C257.54 24.3004 256.702 24.7445 256.284 25.5945L256.195 24.478H255.116V33.4607ZM256.322 27.5864C256.322 26.2923 257.057 25.3915 258.275 25.3915C259.493 25.3915 260.217 26.305 260.217 27.5864C260.217 28.8552 259.493 29.7686 258.275 29.7686C257.057 29.7686 256.322 28.8552 256.322 27.5864ZM265.401 30.8344C266.936 30.8344 267.976 30.0858 268.281 28.7537H267.164C266.961 29.4641 266.352 29.8448 265.426 29.8448C264.246 29.8448 263.561 29.1216 263.472 27.8148L268.268 27.8021V27.358C268.268 25.5184 267.114 24.3004 265.35 24.3004C263.548 24.3004 262.318 25.6453 262.318 27.5864C262.318 29.5149 263.574 30.8344 265.401 30.8344ZM265.35 25.3027C266.403 25.3027 267.075 25.9878 267.075 27.0155H263.498C263.65 25.9244 264.31 25.3027 265.35 25.3027ZM270.793 30.6821V27.3961C270.793 26.1908 271.44 25.3915 272.556 25.3915C273.47 25.3915 274.053 25.899 274.053 27.1551V30.6821H275.246V26.8886C275.246 25.3027 274.497 24.3004 272.861 24.3004C271.985 24.3004 271.199 24.7191 270.805 25.4296L270.679 24.478H269.6V30.6821H270.793ZM276.316 28.8805C276.316 30.0605 277.242 30.8344 278.701 30.8344C280.173 30.8344 281.188 30.0858 281.188 28.9059C281.188 27.9797 280.668 27.4976 279.615 27.2439L278.524 26.9774C277.915 26.8252 277.61 26.5461 277.61 26.1274C277.61 25.5565 278.029 25.2266 278.777 25.2266C279.501 25.2266 279.919 25.6199 279.945 26.2416H281.086C281.061 25.0616 280.173 24.3004 278.815 24.3004C277.445 24.3004 276.481 25.0236 276.481 26.1654C276.481 27.0789 277.001 27.6245 278.105 27.8909L279.196 28.1447C279.843 28.3096 280.046 28.5633 280.046 28.982C280.046 29.553 279.564 29.8955 278.727 29.8955C277.94 29.8955 277.458 29.5149 277.458 28.8805H276.316ZM285.188 30.8344C286.723 30.8344 287.763 30.0858 288.068 28.7537H286.951C286.748 29.4641 286.139 29.8448 285.213 29.8448C284.033 29.8448 283.348 29.1216 283.259 27.8148L288.055 27.8021V27.358C288.055 25.5184 286.9 24.3004 285.137 24.3004C283.335 24.3004 282.104 25.6453 282.104 27.5864C282.104 29.5149 283.361 30.8344 285.188 30.8344ZM285.137 25.3027C286.19 25.3027 286.862 25.9878 286.862 27.0155H283.284C283.437 25.9244 284.096 25.3027 285.137 25.3027ZM288.879 28.8805C288.879 30.0605 289.806 30.8344 291.265 30.8344C292.736 30.8344 293.751 30.0858 293.751 28.9059C293.751 27.9797 293.231 27.4976 292.178 27.2439L291.087 26.9774C290.478 26.8252 290.174 26.5461 290.174 26.1274C290.174 25.5565 290.592 25.2266 291.341 25.2266C292.064 25.2266 292.483 25.6199 292.508 26.2416H293.65C293.624 25.0616 292.736 24.3004 291.379 24.3004C290.009 24.3004 289.044 25.0236 289.044 26.1654C289.044 27.0789 289.565 27.6245 290.668 27.8909L291.759 28.1447C292.406 28.3096 292.609 28.5633 292.609 28.982C292.609 29.553 292.127 29.8955 291.29 29.8955C290.503 29.8955 290.021 29.5149 290.021 28.8805H288.879Z" fill="#676A84"/>
<path d="M238.349 69.646C238.349 70.599 238.101 71.4969 237.607 72.3399C237.13 73.1646 236.415 73.8518 235.462 74.4016C234.528 74.9331 233.419 75.2446 232.136 75.3363V77.5629H230.377V75.3088C228.544 75.1438 227.069 74.5941 225.951 73.6594C224.833 72.7065 224.256 71.4236 224.219 69.8109H228.343C228.453 71.1304 229.131 71.9276 230.377 72.2025V66.9521C229.057 66.6222 227.995 66.2923 227.188 65.9624C226.382 65.6326 225.685 65.1011 225.099 64.3681C224.513 63.635 224.219 62.6362 224.219 61.3717C224.219 59.7774 224.787 58.4762 225.924 57.4683C227.078 56.4603 228.563 55.8831 230.377 55.7365V53.5098H232.136V55.7365C233.896 55.8831 235.298 56.4145 236.342 57.3308C237.405 58.2471 238.001 59.5116 238.129 61.1243H233.978C233.923 60.5929 233.731 60.1347 233.401 59.7499C233.089 59.3467 232.668 59.0627 232.136 58.8977V64.0932C233.511 64.4414 234.592 64.7804 235.38 65.1103C236.186 65.4218 236.883 65.9441 237.469 66.6772C238.056 67.3919 238.349 68.3815 238.349 69.646ZM228.233 61.1793C228.233 61.7841 228.416 62.2789 228.783 62.6637C229.149 63.0303 229.681 63.3326 230.377 63.5709V58.8152C229.717 58.9069 229.195 59.1543 228.81 59.5575C228.425 59.9606 228.233 60.5013 228.233 61.1793ZM232.136 72.2575C232.833 72.1292 233.373 71.8451 233.758 71.4053C234.161 70.9655 234.363 70.434 234.363 69.8109C234.363 69.2062 234.17 68.7205 233.786 68.354C233.401 67.9875 232.851 67.6851 232.136 67.4469V72.2575ZM242.26 60.4096C242.352 58.577 242.994 57.1659 244.185 56.1763C245.394 55.1683 246.979 54.6644 248.94 54.6644C250.278 54.6644 251.424 54.9026 252.376 55.3791C253.329 55.8373 254.044 56.4695 254.521 57.2759C255.015 58.0639 255.263 58.9619 255.263 59.9698C255.263 61.1243 254.96 62.1048 254.356 62.9111C253.769 63.6992 253.064 64.2306 252.239 64.5055V64.6155C253.302 64.9453 254.127 65.5318 254.713 66.3748C255.318 67.2178 255.62 68.299 255.62 69.6185C255.62 70.7181 255.364 71.6985 254.851 72.5599C254.356 73.4212 253.613 74.0992 252.624 74.5941C251.653 75.0705 250.48 75.3088 249.105 75.3088C247.034 75.3088 245.348 74.7865 244.047 73.7419C242.746 72.6973 242.059 71.1579 241.986 69.1237H245.724C245.761 70.0217 246.063 70.7456 246.631 71.2953C247.218 71.8268 248.015 72.0925 249.023 72.0925C249.957 72.0925 250.672 71.836 251.167 71.3228C251.68 70.7914 251.937 70.1133 251.937 69.2886C251.937 68.1891 251.588 67.401 250.892 66.9246C250.196 66.4481 249.114 66.2098 247.648 66.2098H246.851V63.0486H247.648C250.251 63.0486 251.552 62.1781 251.552 60.4371C251.552 59.6491 251.314 59.0352 250.837 58.5953C250.379 58.1555 249.71 57.9356 248.83 57.9356C247.969 57.9356 247.3 58.1738 246.824 58.6503C246.366 59.1085 246.1 59.6949 246.026 60.4096H242.26ZM260.806 75.3638C260.109 75.3638 259.532 75.153 259.074 74.7315C258.634 74.2917 258.414 73.7511 258.414 73.1096C258.414 72.4682 258.634 71.9368 259.074 71.5153C259.532 71.0754 260.109 70.8555 260.806 70.8555C261.484 70.8555 262.043 71.0754 262.482 71.5153C262.922 71.9368 263.142 72.4682 263.142 73.1096C263.142 73.7511 262.922 74.2917 262.482 74.7315C262.043 75.153 261.484 75.3638 260.806 75.3638ZM270.255 69.536C270.402 70.3424 270.732 70.9655 271.245 71.4053C271.776 71.8268 272.482 72.0376 273.362 72.0376C274.498 72.0376 275.323 71.5702 275.836 70.6356C276.349 69.6826 276.605 68.0883 276.605 65.8525C276.184 66.4389 275.588 66.8971 274.819 67.2269C274.067 67.5568 273.252 67.7218 272.372 67.7218C271.199 67.7218 270.136 67.4835 269.183 67.007C268.249 66.5122 267.506 65.7883 266.957 64.8354C266.407 63.8641 266.132 62.6912 266.132 61.3168C266.132 59.2826 266.737 57.6699 267.946 56.4787C269.156 55.2691 270.805 54.6644 272.894 54.6644C275.497 54.6644 277.329 55.4982 278.392 57.1659C279.473 58.8336 280.014 61.3443 280.014 64.6979C280.014 67.0803 279.803 69.0321 279.382 70.5531C278.979 72.0742 278.273 73.2288 277.265 74.0168C276.276 74.8048 274.919 75.1988 273.197 75.1988C271.841 75.1988 270.686 74.9422 269.733 74.4291C268.78 73.8977 268.047 73.2104 267.534 72.3674C267.039 71.5061 266.755 70.5623 266.682 69.536H270.255ZM273.169 64.588C274.122 64.588 274.874 64.2948 275.423 63.7083C275.973 63.1219 276.248 62.3339 276.248 61.3443C276.248 60.263 275.955 59.4292 275.368 58.8427C274.8 58.238 274.021 57.9356 273.032 57.9356C272.042 57.9356 271.254 58.2471 270.668 58.8702C270.1 59.475 269.816 60.2813 269.816 61.2893C269.816 62.2606 270.09 63.0577 270.64 63.6808C271.208 64.2856 272.051 64.588 273.169 64.588ZM283.01 64.8904C283.01 61.7199 283.578 59.2368 284.714 57.4408C285.869 55.6448 287.775 54.7468 290.432 54.7468C293.089 54.7468 294.986 55.6448 296.122 57.4408C297.277 59.2368 297.854 61.7199 297.854 64.8904C297.854 68.0791 297.277 70.5806 296.122 72.3949C294.986 74.2092 293.089 75.1163 290.432 75.1163C287.775 75.1163 285.869 74.2092 284.714 72.3949C283.578 70.5806 283.01 68.0791 283.01 64.8904ZM294.06 64.8904C294.06 63.5342 293.969 62.398 293.786 61.4817C293.621 60.5471 293.272 59.7865 292.741 59.2001C292.228 58.6137 291.458 58.3204 290.432 58.3204C289.406 58.3204 288.627 58.6137 288.095 59.2001C287.582 59.7865 287.234 60.5471 287.051 61.4817C286.886 62.398 286.803 63.5342 286.803 64.8904C286.803 66.2831 286.886 67.456 287.051 68.409C287.216 69.3436 287.564 70.1041 288.095 70.6906C288.627 71.2587 289.406 71.5428 290.432 71.5428C291.458 71.5428 292.237 71.2587 292.768 70.6906C293.3 70.1041 293.648 69.3436 293.813 68.409C293.978 67.456 294.06 66.2831 294.06 64.8904ZM300.781 64.8904C300.781 61.7199 301.349 59.2368 302.485 57.4408C303.64 55.6448 305.546 54.7468 308.203 54.7468C310.86 54.7468 312.757 55.6448 313.893 57.4408C315.048 59.2368 315.625 61.7199 315.625 64.8904C315.625 68.0791 315.048 70.5806 313.893 72.3949C312.757 74.2092 310.86 75.1163 308.203 75.1163C305.546 75.1163 303.64 74.2092 302.485 72.3949C301.349 70.5806 300.781 68.0791 300.781 64.8904ZM311.832 64.8904C311.832 63.5342 311.74 62.398 311.557 61.4817C311.392 60.5471 311.044 59.7865 310.512 59.2001C309.999 58.6137 309.229 58.3204 308.203 58.3204C307.177 58.3204 306.398 58.6137 305.867 59.2001C305.353 59.7865 305.005 60.5471 304.822 61.4817C304.657 62.398 304.575 63.5342 304.575 64.8904C304.575 66.2831 304.657 67.456 304.822 68.409C304.987 69.3436 305.335 70.1041 305.867 70.6906C306.398 71.2587 307.177 71.5428 308.203 71.5428C309.229 71.5428 310.008 71.2587 310.54 70.6906C311.071 70.1041 311.419 69.3436 311.584 68.409C311.749 67.456 311.832 66.2831 311.832 64.8904Z" fill="#FE6789"/>
<line x1="182.057" y1="28.2549" x2="182.057" y2="80.0615" stroke="#676A84" stroke-width="1.05728"/>
</svg>
