<svg width="360" height="217" viewBox="0 0 360 217" fill="none" xmlns="http://www.w3.org/2000/svg">
<rect width="360" height="216.818" rx="11.9514" fill="#4495C7"/>
<path d="M29.3596 30.6021C30.8733 30.6021 32.196 30.8952 33.3278 31.4816C34.4733 32.0543 35.3528 32.8862 35.9665 33.9771C36.5937 35.0543 36.9074 36.3157 36.9074 37.7612C36.9074 39.2066 36.5937 40.4612 35.9665 41.5248C35.3528 42.5884 34.4733 43.4066 33.3278 43.9793C32.196 44.5384 30.8733 44.818 29.3596 44.818H24.7165V30.6021H29.3596ZM29.3596 42.9157C31.0233 42.9157 32.2983 42.4657 33.1846 41.5657C34.071 40.6657 34.5142 39.3975 34.5142 37.7612C34.5142 36.1112 34.071 34.8225 33.1846 33.8952C32.2983 32.968 31.0233 32.5043 29.3596 32.5043H27.0483V42.9157H29.3596ZM48.9916 38.9066C48.9916 39.3293 48.9643 39.7112 48.9098 40.0521H40.2984C40.3666 40.9521 40.7007 41.6748 41.3007 42.2203C41.9007 42.7657 42.6371 43.0384 43.5098 43.0384C44.7643 43.0384 45.6507 42.5134 46.1689 41.4634H48.6848C48.3439 42.4998 47.7234 43.3521 46.8234 44.0203C45.9371 44.6748 44.8325 45.0021 43.5098 45.0021C42.4325 45.0021 41.4643 44.7634 40.6052 44.2862C39.7598 43.7953 39.0916 43.1134 38.6007 42.2407C38.1234 41.3543 37.8848 40.3316 37.8848 39.1725C37.8848 38.0134 38.1166 36.9975 38.5802 36.1248C39.0575 35.2384 39.7189 34.5566 40.5643 34.0793C41.4234 33.6021 42.4052 33.3634 43.5098 33.3634C44.5734 33.3634 45.5211 33.5952 46.353 34.0589C47.1848 34.5225 47.8325 35.1771 48.2961 36.0225C48.7598 36.8543 48.9916 37.8157 48.9916 38.9066ZM46.5575 38.1702C46.5439 37.3112 46.2371 36.6225 45.6371 36.1043C45.0371 35.5862 44.2939 35.3271 43.4075 35.3271C42.603 35.3271 41.9143 35.5862 41.3416 36.1043C40.7689 36.6089 40.428 37.2975 40.3189 38.1702H46.5575ZM53.0618 35.2248C53.4573 34.6793 53.9959 34.2362 54.6777 33.8952C55.3732 33.5407 56.1436 33.3634 56.9891 33.3634C57.9845 33.3634 58.8845 33.6021 59.6891 34.0793C60.4936 34.5566 61.1277 35.2384 61.5913 36.1248C62.055 36.9975 62.2868 37.9998 62.2868 39.1316C62.2868 40.2634 62.055 41.2793 61.5913 42.1793C61.1277 43.0657 60.4868 43.7612 59.6686 44.2657C58.8641 44.7566 57.9709 45.0021 56.9891 45.0021C56.1163 45.0021 55.3391 44.8316 54.6573 44.4907C53.9891 44.1498 53.4573 43.7134 53.0618 43.1816V44.818H50.73V29.6816H53.0618V35.2248ZM59.9141 39.1316C59.9141 38.3543 59.7504 37.6862 59.4232 37.1271C59.1095 36.5543 58.6868 36.1248 58.155 35.8384C57.6368 35.5384 57.0777 35.3884 56.4777 35.3884C55.8913 35.3884 55.3323 35.5384 54.8004 35.8384C54.2823 36.1384 53.8595 36.5748 53.5323 37.1475C53.2186 37.7202 53.0618 38.3952 53.0618 39.1725C53.0618 39.9498 53.2186 40.6316 53.5323 41.218C53.8595 41.7907 54.2823 42.2271 54.8004 42.5271C55.3323 42.8271 55.8913 42.9771 56.4777 42.9771C57.0777 42.9771 57.6368 42.8271 58.155 42.5271C58.6868 42.2134 59.1095 41.7634 59.4232 41.1771C59.7504 40.5907 59.9141 39.9089 59.9141 39.1316ZM65.2227 32.0543C64.8 32.0543 64.4455 31.9112 64.1591 31.6248C63.8727 31.3384 63.7296 30.9839 63.7296 30.5612C63.7296 30.1384 63.8727 29.7839 64.1591 29.4975C64.4455 29.2112 64.8 29.068 65.2227 29.068C65.6318 29.068 65.9796 29.2112 66.2659 29.4975C66.5523 29.7839 66.6955 30.1384 66.6955 30.5612C66.6955 30.9839 66.5523 31.3384 66.2659 31.6248C65.9796 31.9112 65.6318 32.0543 65.2227 32.0543ZM66.3682 33.5475V44.818H64.0364V33.5475H66.3682ZM71.5937 35.4498V41.6884C71.5937 42.1112 71.6892 42.418 71.8801 42.6089C72.0847 42.7862 72.4256 42.8748 72.9028 42.8748H74.3347V44.818H72.4937C71.4437 44.818 70.6392 44.5725 70.0801 44.0816C69.521 43.5907 69.2415 42.793 69.2415 41.6884V35.4498H67.9119V33.5475H69.2415V30.7452H71.5937V33.5475H74.3347V35.4498H71.5937Z" fill="white"/>
<path d="M28.2656 184.14L31.8001 189.818H29.7056L27.1365 185.695L24.731 189.818H22.6528L26.1874 184.14L22.6365 178.446H24.731L27.3165 182.602L29.7383 178.446H31.8165L28.2656 184.14ZM34.2409 179.607C33.9027 179.607 33.619 179.493 33.3899 179.264C33.1609 179.035 33.0463 178.751 33.0463 178.413C33.0463 178.075 33.1609 177.791 33.3899 177.562C33.619 177.333 33.9027 177.218 34.2409 177.218C34.5681 177.218 34.8463 177.333 35.0754 177.562C35.3045 177.791 35.419 178.075 35.419 178.413C35.419 178.751 35.3045 179.035 35.0754 179.264C34.8463 179.493 34.5681 179.607 34.2409 179.607ZM35.1572 180.802V189.818H33.2918V180.802H35.1572ZM41.7137 180.655C42.4009 180.655 43.0118 180.802 43.5464 181.097C44.0918 181.391 44.5173 181.827 44.8228 182.406C45.1391 182.984 45.2973 183.682 45.2973 184.5V189.818H43.4482V184.778C43.4482 183.971 43.2464 183.355 42.8428 182.929C42.4391 182.493 41.8882 182.275 41.19 182.275C40.4918 182.275 39.9355 182.493 39.5209 182.929C39.1173 183.355 38.9155 183.971 38.9155 184.778V189.818H37.05V177.709H38.9155V181.849C39.2318 181.467 39.63 181.173 40.11 180.966C40.6009 180.758 41.1355 180.655 41.7137 180.655ZM55.2859 180.802V189.818H53.4204V188.755C53.1259 189.126 52.7386 189.42 52.2586 189.638C51.7895 189.846 51.2877 189.949 50.7532 189.949C50.0441 189.949 49.4059 189.802 48.8386 189.507C48.2823 189.213 47.8404 188.777 47.5132 188.198C47.1968 187.62 47.0386 186.922 47.0386 186.104V180.802H48.8877V185.826C48.8877 186.633 49.0895 187.255 49.4932 187.691C49.8968 188.117 50.4477 188.329 51.1459 188.329C51.8441 188.329 52.395 188.117 52.7986 187.691C53.2132 187.255 53.4204 186.633 53.4204 185.826V180.802H55.2859ZM66.7925 189.818L64.1743 185.269H62.7507V189.818H60.8852V178.446H64.8125C65.6852 178.446 66.4216 178.598 67.0216 178.904C67.6325 179.209 68.0852 179.618 68.3797 180.131C68.6852 180.644 68.8379 181.217 68.8379 181.849C68.8379 182.591 68.6197 183.267 68.1834 183.878C67.7579 184.478 67.0979 184.887 66.2034 185.106L69.0179 189.818H66.7925ZM62.7507 183.78H64.8125C65.5107 183.78 66.0343 183.606 66.3834 183.257C66.7434 182.907 66.9234 182.438 66.9234 181.849C66.9234 181.26 66.7488 180.802 66.3997 180.475C66.0507 180.137 65.5216 179.967 64.8125 179.967H62.7507V183.78ZM74.5789 189.966C73.728 189.966 72.9589 189.775 72.2716 189.393C71.5843 189 71.0443 188.455 70.6516 187.757C70.2589 187.047 70.0625 186.229 70.0625 185.302C70.0625 184.386 70.2643 183.573 70.668 182.864C71.0716 182.155 71.6225 181.609 72.3207 181.227C73.0189 180.846 73.7989 180.655 74.6607 180.655C75.5225 180.655 76.3025 180.846 77.0007 181.227C77.6989 181.609 78.2498 182.155 78.6534 182.864C79.0571 183.573 79.2589 184.386 79.2589 185.302C79.2589 186.218 79.0516 187.031 78.6371 187.74C78.2225 188.449 77.6552 189 76.9352 189.393C76.2262 189.775 75.4407 189.966 74.5789 189.966ZM74.5789 188.346C75.0589 188.346 75.5062 188.231 75.9207 188.002C76.3462 187.773 76.6898 187.429 76.9516 186.971C77.2134 186.513 77.3443 185.957 77.3443 185.302C77.3443 184.647 77.2189 184.097 76.968 183.649C76.7171 183.191 76.3843 182.847 75.9698 182.618C75.5552 182.389 75.108 182.275 74.628 182.275C74.148 182.275 73.7007 182.389 73.2862 182.618C72.8825 182.847 72.5607 183.191 72.3207 183.649C72.0807 184.097 71.9607 184.647 71.9607 185.302C71.9607 186.273 72.2062 187.026 72.6971 187.56C73.1989 188.084 73.8262 188.346 74.5789 188.346ZM82.4121 182.144C82.7284 181.707 83.1593 181.353 83.7048 181.08C84.2612 180.797 84.8775 180.655 85.5539 180.655C86.3503 180.655 87.0703 180.846 87.7139 181.227C88.3575 181.609 88.8648 182.155 89.2357 182.864C89.6066 183.562 89.7921 184.364 89.7921 185.269C89.7921 186.175 89.6066 186.987 89.2357 187.707C88.8648 188.417 88.3521 188.973 87.6975 189.377C87.0539 189.769 86.3393 189.966 85.5539 189.966C84.8557 189.966 84.2339 189.829 83.6884 189.557C83.1539 189.284 82.7284 188.935 82.4121 188.509V189.818H80.5466V177.709H82.4121V182.144ZM87.8939 185.269C87.8939 184.647 87.763 184.113 87.5012 183.666C87.2503 183.207 86.9121 182.864 86.4866 182.635C86.0721 182.395 85.6248 182.275 85.1448 182.275C84.6757 182.275 84.2284 182.395 83.803 182.635C83.3884 182.875 83.0503 183.224 82.7884 183.682C82.5375 184.14 82.4121 184.68 82.4121 185.302C82.4121 185.924 82.5375 186.469 82.7884 186.938C83.0503 187.397 83.3884 187.746 83.803 187.986C84.2284 188.226 84.6757 188.346 85.1448 188.346C85.6248 188.346 86.0721 188.226 86.4866 187.986C86.9121 187.735 87.2503 187.375 87.5012 186.906C87.763 186.437 87.8939 185.891 87.8939 185.269ZM99.3441 185.089C99.3441 185.427 99.3223 185.733 99.2786 186.006H92.3895C92.4441 186.726 92.7114 187.304 93.1914 187.74C93.6714 188.177 94.2605 188.395 94.9586 188.395C95.9623 188.395 96.6714 187.975 97.0859 187.135H99.0986C98.8259 187.964 98.3295 188.646 97.6095 189.18C96.9005 189.704 96.0168 189.966 94.9586 189.966C94.0968 189.966 93.3223 189.775 92.635 189.393C91.9586 189 91.4241 188.455 91.0314 187.757C90.6495 187.047 90.4586 186.229 90.4586 185.302C90.4586 184.375 90.6441 183.562 91.015 182.864C91.3968 182.155 91.9259 181.609 92.6023 181.227C93.2895 180.846 94.075 180.655 94.9586 180.655C95.8095 180.655 96.5677 180.84 97.2332 181.211C97.8986 181.582 98.4168 182.106 98.7877 182.782C99.1586 183.447 99.3441 184.217 99.3441 185.089ZM97.3968 184.5C97.3859 183.813 97.1405 183.262 96.6605 182.847C96.1805 182.433 95.5859 182.226 94.8768 182.226C94.2332 182.226 93.6823 182.433 93.2241 182.847C92.7659 183.251 92.4932 183.802 92.4059 184.5H97.3968ZM102.489 182.111C102.762 181.653 103.122 181.298 103.569 181.047C104.027 180.786 104.567 180.655 105.189 180.655V182.586H104.714C103.984 182.586 103.427 182.771 103.045 183.142C102.674 183.513 102.489 184.157 102.489 185.073V189.818H100.624V180.802H102.489V182.111ZM108.524 182.324V187.315C108.524 187.653 108.6 187.898 108.753 188.051C108.916 188.193 109.189 188.264 109.571 188.264H110.716V189.818H109.244C108.404 189.818 107.76 189.622 107.313 189.229C106.866 188.837 106.642 188.198 106.642 187.315V182.324H105.578V180.802H106.642V178.56H108.524V180.802H110.716V182.324H108.524ZM115.152 189.966C114.443 189.966 113.805 189.84 113.238 189.589C112.681 189.327 112.239 188.978 111.912 188.542C111.585 188.095 111.41 187.598 111.388 187.053H113.319C113.352 187.435 113.532 187.757 113.859 188.018C114.198 188.269 114.618 188.395 115.119 188.395C115.643 188.395 116.047 188.297 116.33 188.1C116.625 187.893 116.772 187.631 116.772 187.315C116.772 186.977 116.608 186.726 116.281 186.562C115.965 186.398 115.458 186.218 114.759 186.022C114.083 185.837 113.532 185.657 113.107 185.482C112.681 185.307 112.31 185.04 111.994 184.68C111.688 184.32 111.536 183.846 111.536 183.257C111.536 182.777 111.678 182.34 111.961 181.947C112.245 181.544 112.648 181.227 113.172 180.998C113.707 180.769 114.318 180.655 115.005 180.655C116.03 180.655 116.854 180.917 117.476 181.44C118.108 181.953 118.447 182.657 118.49 183.551H116.625C116.592 183.147 116.428 182.826 116.134 182.586C115.839 182.346 115.441 182.226 114.939 182.226C114.448 182.226 114.072 182.318 113.81 182.504C113.548 182.689 113.418 182.935 113.418 183.24C113.418 183.48 113.505 183.682 113.679 183.846C113.854 184.009 114.067 184.14 114.318 184.238C114.568 184.326 114.939 184.44 115.43 184.582C116.085 184.757 116.619 184.937 117.034 185.122C117.459 185.297 117.825 185.558 118.13 185.907C118.436 186.257 118.594 186.72 118.605 187.298C118.605 187.811 118.463 188.269 118.179 188.673C117.896 189.077 117.492 189.393 116.968 189.622C116.456 189.851 115.85 189.966 115.152 189.966ZM123.975 189.966C123.124 189.966 122.355 189.775 121.668 189.393C120.981 189 120.441 188.455 120.048 187.757C119.655 187.047 119.459 186.229 119.459 185.302C119.459 184.386 119.661 183.573 120.064 182.864C120.468 182.155 121.019 181.609 121.717 181.227C122.415 180.846 123.195 180.655 124.057 180.655C124.919 180.655 125.699 180.846 126.397 181.227C127.095 181.609 127.646 182.155 128.05 182.864C128.453 183.573 128.655 184.386 128.655 185.302C128.655 186.218 128.448 187.031 128.033 187.74C127.619 188.449 127.051 189 126.331 189.393C125.622 189.775 124.837 189.966 123.975 189.966ZM123.975 188.346C124.455 188.346 124.902 188.231 125.317 188.002C125.742 187.773 126.086 187.429 126.348 186.971C126.61 186.513 126.741 185.957 126.741 185.302C126.741 184.647 126.615 184.097 126.364 183.649C126.113 183.191 125.781 182.847 125.366 182.618C124.951 182.389 124.504 182.275 124.024 182.275C123.544 182.275 123.097 182.389 122.682 182.618C122.279 182.847 121.957 183.191 121.717 183.649C121.477 184.097 121.357 184.647 121.357 185.302C121.357 186.273 121.602 187.026 122.093 187.56C122.595 188.084 123.222 188.346 123.975 188.346ZM134.492 180.655C135.201 180.655 135.834 180.802 136.39 181.097C136.957 181.391 137.399 181.827 137.716 182.406C138.032 182.984 138.19 183.682 138.19 184.5V189.818H136.341V184.778C136.341 183.971 136.139 183.355 135.736 182.929C135.332 182.493 134.781 182.275 134.083 182.275C133.385 182.275 132.828 182.493 132.414 182.929C132.01 183.355 131.808 183.971 131.808 184.778V189.818H129.943V180.802H131.808V181.833C132.114 181.462 132.501 181.173 132.97 180.966C133.45 180.758 133.957 180.655 134.492 180.655Z" fill="white"/>
<path d="M291.437 183.698C291.437 181.811 291.753 180.338 292.386 179.28C293.03 178.211 294.132 177.677 295.692 177.677C297.252 177.677 298.348 178.211 298.981 179.28C299.624 180.338 299.946 181.811 299.946 183.698C299.946 185.607 299.624 187.102 298.981 188.182C298.348 189.251 297.252 189.786 295.692 189.786C294.132 189.786 293.03 189.251 292.386 188.182C291.753 187.102 291.437 185.607 291.437 183.698ZM298.113 183.698C298.113 182.815 298.053 182.067 297.933 181.457C297.824 180.846 297.595 180.349 297.246 179.967C296.897 179.575 296.379 179.378 295.692 179.378C295.004 179.378 294.486 179.575 294.137 179.967C293.788 180.349 293.553 180.846 293.433 181.457C293.324 182.067 293.27 182.815 293.27 183.698C293.27 184.615 293.324 185.384 293.433 186.006C293.542 186.627 293.772 187.129 294.121 187.511C294.481 187.893 295.004 188.084 295.692 188.084C296.379 188.084 296.897 187.893 297.246 187.511C297.606 187.129 297.841 186.627 297.95 186.006C298.059 185.384 298.113 184.615 298.113 183.698ZM303.376 183.584C302.242 183.017 301.675 182.122 301.675 180.9C301.675 180.311 301.822 179.771 302.116 179.28C302.411 178.789 302.853 178.402 303.442 178.118C304.031 177.824 304.751 177.677 305.602 177.677C306.442 177.677 307.156 177.824 307.745 178.118C308.345 178.402 308.793 178.789 309.087 179.28C309.382 179.771 309.529 180.311 309.529 180.9C309.529 181.511 309.371 182.051 309.055 182.52C308.749 182.978 308.34 183.333 307.827 183.584C308.449 183.813 308.94 184.189 309.3 184.713C309.66 185.226 309.84 185.831 309.84 186.529C309.84 187.238 309.66 187.866 309.3 188.411C308.94 188.957 308.438 189.377 307.795 189.671C307.151 189.966 306.42 190.113 305.602 190.113C304.784 190.113 304.053 189.966 303.409 189.671C302.776 189.377 302.28 188.957 301.92 188.411C301.56 187.866 301.38 187.238 301.38 186.529C301.38 185.82 301.56 185.209 301.92 184.697C302.28 184.184 302.765 183.813 303.376 183.584ZM307.745 181.129C307.745 180.518 307.555 180.049 307.173 179.722C306.791 179.395 306.267 179.231 305.602 179.231C304.947 179.231 304.429 179.395 304.047 179.722C303.665 180.049 303.475 180.524 303.475 181.146C303.475 181.691 303.671 182.138 304.064 182.487C304.467 182.826 304.98 182.995 305.602 182.995C306.224 182.995 306.736 182.82 307.14 182.471C307.544 182.122 307.745 181.675 307.745 181.129ZM305.602 184.402C304.882 184.402 304.293 184.582 303.835 184.942C303.387 185.291 303.164 185.798 303.164 186.464C303.164 187.086 303.382 187.593 303.818 187.986C304.255 188.367 304.849 188.558 305.602 188.558C306.344 188.558 306.927 188.362 307.353 187.969C307.789 187.577 308.007 187.075 308.007 186.464C308.007 185.809 307.784 185.302 307.336 184.942C306.9 184.582 306.322 184.402 305.602 184.402ZM317.542 174.371L313.091 192.682H311.259L315.693 174.371H317.542ZM320.122 187.282C321.17 186.377 321.993 185.635 322.593 185.057C323.204 184.467 323.711 183.857 324.115 183.224C324.519 182.591 324.721 181.958 324.721 181.326C324.721 180.671 324.562 180.158 324.246 179.787C323.941 179.417 323.455 179.231 322.79 179.231C322.146 179.231 321.644 179.438 321.284 179.853C320.935 180.257 320.75 180.802 320.728 181.489H318.928C318.961 180.246 319.331 179.297 320.041 178.642C320.761 177.977 321.671 177.644 322.773 177.644C323.962 177.644 324.89 177.971 325.555 178.626C326.231 179.28 326.57 180.153 326.57 181.244C326.57 182.029 326.368 182.787 325.964 183.518C325.571 184.238 325.097 184.887 324.541 185.466C323.995 186.033 323.297 186.693 322.446 187.446L321.71 188.1H326.897V189.655H318.944V188.297L320.122 187.282ZM330.303 186.578C330.412 187.124 330.647 187.538 331.007 187.822C331.367 188.106 331.852 188.247 332.463 188.247C333.238 188.247 333.805 187.942 334.165 187.331C334.525 186.72 334.705 185.678 334.705 184.206C334.443 184.577 334.072 184.866 333.592 185.073C333.123 185.269 332.61 185.367 332.054 185.367C331.345 185.367 330.701 185.226 330.123 184.942C329.545 184.647 329.087 184.217 328.748 183.649C328.421 183.071 328.258 182.373 328.258 181.555C328.258 180.355 328.607 179.4 329.305 178.691C330.014 177.971 330.985 177.611 332.218 177.611C333.701 177.611 334.754 178.107 335.376 179.1C336.008 180.082 336.325 181.593 336.325 183.633C336.325 185.04 336.205 186.191 335.965 187.086C335.736 187.98 335.332 188.657 334.754 189.115C334.176 189.573 333.374 189.802 332.348 189.802C331.181 189.802 330.281 189.497 329.648 188.886C329.016 188.275 328.661 187.506 328.585 186.578H330.303ZM332.381 183.797C333.036 183.797 333.548 183.595 333.919 183.191C334.301 182.777 334.492 182.231 334.492 181.555C334.492 180.802 334.29 180.218 333.887 179.804C333.494 179.378 332.954 179.166 332.267 179.166C331.579 179.166 331.034 179.384 330.63 179.82C330.238 180.246 330.041 180.807 330.041 181.506C330.041 182.171 330.232 182.722 330.614 183.158C331.007 183.584 331.596 183.797 332.381 183.797Z" fill="white"/>
<path d="M108.454 113.823H69.9061C67.4616 113.823 65.4551 111.817 65.4551 109.372V80.8149C65.4551 78.3703 67.4616 76.3638 69.9061 76.3638H108.454C110.898 76.3638 112.905 78.3703 112.905 80.8149V109.372C112.919 111.831 110.913 113.823 108.454 113.823Z" fill="white"/>
<path d="M83.7264 108.835C83.5285 108.835 83.3307 108.722 83.2318 108.539C83.0905 108.27 83.2035 107.931 83.472 107.804C84.2633 107.394 85.3514 106.631 85.9731 105.303C86.7644 103.621 86.5666 101.798 86.2274 101.643C86.1427 101.601 85.8035 101.77 85.6057 101.883C85.0829 102.152 84.3764 102.519 83.5427 102.222C82.7231 101.94 82.3275 101.219 82.1438 100.866C80.9003 98.5907 80.5188 92.656 81.8329 89.7027C82.2709 88.7277 82.8644 88.1484 83.5992 87.9788C84.3481 87.8093 84.9557 88.1201 85.4503 88.3745C85.8601 88.5864 86.0579 88.6712 86.185 88.6006C86.6937 88.2897 86.6796 86.4103 85.9731 84.9125C85.3514 83.5843 84.2633 82.8212 83.472 82.4114C83.2035 82.2701 83.0905 81.9451 83.2318 81.6767C83.3731 81.4082 83.6981 81.2951 83.9666 81.4364C84.9133 81.9169 86.1992 82.8354 86.9622 84.4321C87.7111 86.0147 88.0644 88.7419 86.7503 89.5332C86.0861 89.9288 85.4503 89.6038 84.9416 89.3495C84.5601 89.1516 84.1927 88.9679 83.8394 89.0527C83.359 89.1658 83.0198 89.7169 82.822 90.169C81.6775 92.7408 82.0025 98.3505 83.0905 100.357C83.2742 100.696 83.5003 101.064 83.8818 101.205C84.2492 101.332 84.6024 101.177 85.097 100.922C85.5774 100.682 86.1144 100.399 86.6937 100.682C87.9231 101.276 87.8383 103.932 86.9481 105.811C86.185 107.408 84.8992 108.327 83.9524 108.807C83.8959 108.807 83.8111 108.835 83.7264 108.835Z" fill="#9588EB"/>
<path d="M82.0721 90.6918H72.1808C71.8841 90.6918 71.6298 90.4516 71.6298 90.1407C71.6298 89.8298 71.87 89.5896 72.1808 89.5896H82.0721C82.3689 89.5896 82.6232 89.8298 82.6232 90.1407C82.6232 90.4516 82.383 90.6918 82.0721 90.6918Z" fill="#9588EB"/>
<path d="M82.0721 100.584H72.1808C71.8841 100.584 71.6298 100.344 71.6298 100.033C71.6298 99.7361 71.87 99.4818 72.1808 99.4818H82.0721C82.3689 99.4818 82.6232 99.722 82.6232 100.033C82.6232 100.344 82.383 100.584 82.0721 100.584Z" fill="#9588EB"/>
<path d="M95.2703 108.836C95.1855 108.836 95.1007 108.822 95.016 108.779C94.0692 108.299 92.7834 107.381 92.0203 105.784C91.1301 103.904 91.0453 101.262 92.2747 100.654C92.854 100.372 93.391 100.654 93.8714 100.895C94.366 101.149 94.7192 101.304 95.0866 101.177C95.4964 101.036 95.7366 100.598 95.8779 100.33C96.9801 98.323 97.3051 92.7273 96.1464 90.1415C95.9486 89.7034 95.6094 89.1382 95.129 89.0252C94.8323 88.9545 94.6486 88.6578 94.7192 88.3611C94.7899 88.0643 95.0866 87.8806 95.3833 87.9513C96.1181 88.1208 96.7116 88.7002 97.1496 89.6893C98.4638 92.6284 98.0823 98.5632 96.8388 100.852C96.6551 101.206 96.2453 101.926 95.4399 102.209C94.6062 102.491 93.8997 102.138 93.3768 101.87C93.179 101.771 92.8399 101.601 92.7551 101.629C92.4301 101.785 92.2181 103.608 93.0094 105.289C93.6312 106.618 94.7192 107.381 95.5105 107.79C95.779 107.932 95.892 108.257 95.7507 108.525C95.6518 108.723 95.4681 108.836 95.2703 108.836Z" fill="#9588EB"/>
<path d="M93.0652 88.5022C92.8391 88.5022 92.6272 88.3609 92.5424 88.1207C91.3696 84.5881 94.125 81.861 95.0152 81.4088C95.2837 81.2675 95.6228 81.3805 95.75 81.649C95.8913 81.9175 95.7782 82.2566 95.5098 82.3838C95.1141 82.5816 92.5848 84.7577 93.588 87.7675C93.6869 88.0501 93.5315 88.3609 93.2348 88.4598C93.1782 88.4881 93.1217 88.5022 93.0652 88.5022Z" fill="#9588EB"/>
<path d="M106.801 90.6918H96.9095C96.6128 90.6918 96.3585 90.4516 96.3585 90.1407C96.3585 89.8298 96.5987 89.5896 96.9095 89.5896H106.801C107.098 89.5896 107.352 89.8298 107.352 90.1407C107.352 90.4516 107.112 90.6918 106.801 90.6918Z" fill="#9588EB"/>
<path d="M106.801 100.584H96.9095C96.6128 100.584 96.3585 100.344 96.3585 100.033C96.3585 99.7361 96.5987 99.4818 96.9095 99.4818H106.801C107.098 99.4818 107.352 99.722 107.352 100.033C107.352 100.344 107.112 100.584 106.801 100.584Z" fill="#9588EB"/>
<path d="M300.898 59.0807C311.184 59.0807 319.522 50.7423 319.522 40.4565C319.522 30.1707 311.184 21.8323 300.898 21.8323C290.612 21.8323 282.274 30.1707 282.274 40.4565C282.274 50.7423 290.612 59.0807 300.898 59.0807Z" fill="white"/>
<path d="M336.567 40.4424C336.567 49.5986 329.145 57.0211 319.989 57.0211C310.832 57.0211 303.41 49.5986 303.41 40.4424C303.41 31.2862 310.832 23.8637 319.989 23.8637C329.145 23.8637 336.567 31.2862 336.567 40.4424Z" stroke="white" stroke-width="4.09091"/>
</svg>
