<svg width="18" height="14" viewBox="0 0 18 14" fill="none" xmlns="http://www.w3.org/2000/svg">
<path fill-rule="evenodd" clip-rule="evenodd" d="M6.32078 0.25C6.63578 0.25 6.89152 0.500789 6.89152 0.810413C6.89152 1.1193 6.63653 1.37009 6.32078 1.37009L5.09902 1.37083C4.08502 1.3723 3.26003 2.18203 3.26003 3.17709V4.57151C3.26003 4.8804 3.00353 5.13192 2.68852 5.13192C2.37352 5.13192 2.11777 4.8804 2.11777 4.57151V3.17709C2.11777 1.56499 3.45502 0.252206 5.09828 0.250735L6.32002 0.25H6.32078ZM11.7004 0.250221H12.8952C14.5429 0.250221 15.8825 1.56374 15.8825 3.17952V4.57173C15.8825 4.88062 15.6274 5.13214 15.3117 5.13214C14.9967 5.13214 14.7409 4.88062 14.7409 4.57173V3.17952C14.7409 2.18151 13.9129 1.36958 12.8952 1.36958H11.7004C11.3854 1.36958 11.1297 1.11952 11.1297 0.810634C11.1297 0.501009 11.3854 0.250221 11.7004 0.250221ZM11.0719 3.05699H6.92887C5.98087 3.06655 5.21887 3.82627 5.22712 4.75662V5.69064C5.22937 5.79949 5.31862 5.88848 5.42962 5.89215H12.5696C12.6814 5.88921 12.7706 5.80022 12.7744 5.69064V4.75662C12.7751 4.30726 12.5981 3.87555 12.2786 3.55416C11.9614 3.23571 11.5256 3.05699 11.0719 3.05699ZM1.3215 7.03093H16.6793C16.9942 7.03093 17.25 7.28171 17.25 7.59134C17.25 7.90023 16.9942 8.15028 16.6793 8.15028H15.8827V10.82C15.8827 12.4365 14.5425 13.75 12.8955 13.75H11.7008C11.385 13.75 11.1292 13.4992 11.1292 13.1896C11.1292 12.8807 11.385 12.6299 11.7008 12.6299H12.8955C13.9132 12.6299 14.7413 11.8187 14.7413 10.82V8.15028H12.774V8.89382C12.7815 9.82417 12.0203 10.5846 11.0715 10.5934H6.9285C5.9805 10.5846 5.21925 9.82417 5.22675 8.89382V8.15028H3.2595V10.8229C3.2595 11.818 4.08525 12.6277 5.1 12.6292L6.321 12.6299C6.636 12.6299 6.89175 12.8807 6.89175 13.1896C6.891 13.4992 6.636 13.75 6.32025 13.75L5.0985 13.7493C3.45525 13.7478 2.11725 12.435 2.11725 10.8229V8.15028H1.3215C1.0065 8.15028 0.75 7.90023 0.75 7.59134C0.75 7.28171 1.0065 7.03093 1.3215 7.03093Z" fill="#757590"/>
</svg>
