<svg width="362" height="454" viewBox="0 0 362 454" fill="none" xmlns="http://www.w3.org/2000/svg">
<rect x="0.734375" y="0.563965" width="360.531" height="452.515" rx="25.3746" fill="#1C1F37"/>
<path d="M161.144 52.5152C160.321 52.5152 159.577 52.3743 158.911 52.0923C158.257 51.8104 157.739 51.4044 157.355 50.8743C156.972 50.3443 156.774 49.7184 156.763 48.9966H159.301C159.334 49.4816 159.504 49.865 159.808 50.1469C160.124 50.4289 160.552 50.5698 161.094 50.5698C161.646 50.5698 162.08 50.4402 162.396 50.1808C162.712 49.9101 162.87 49.5605 162.87 49.1319C162.87 48.7823 162.763 48.4948 162.548 48.2692C162.334 48.0437 162.064 47.8689 161.736 47.7448C161.421 47.6095 160.981 47.4629 160.417 47.305C159.65 47.0794 159.024 46.8595 158.539 46.6452C158.066 46.4197 157.654 46.087 157.304 45.6472C156.966 45.1961 156.797 44.5983 156.797 43.854C156.797 43.1548 156.972 42.5458 157.321 42.027C157.671 41.5083 158.161 41.1136 158.793 40.8429C159.425 40.561 160.146 40.42 160.958 40.42C162.176 40.42 163.163 40.7188 163.919 41.3166C164.686 41.903 165.108 42.7263 165.187 43.7864H162.582C162.56 43.3804 162.385 43.0477 162.058 42.7883C161.742 42.5176 161.319 42.3823 160.789 42.3823C160.327 42.3823 159.955 42.5007 159.673 42.7375C159.402 42.9744 159.267 43.3183 159.267 43.7694C159.267 44.0852 159.368 44.3502 159.571 44.5645C159.785 44.7675 160.045 44.9367 160.349 45.072C160.665 45.1961 161.105 45.3427 161.669 45.5118C162.436 45.7374 163.062 45.9629 163.547 46.1885C164.031 46.414 164.449 46.7524 164.798 47.2035C165.148 47.6546 165.323 48.2467 165.323 48.9797C165.323 49.6112 165.159 50.1977 164.832 50.739C164.505 51.2803 164.026 51.7145 163.394 52.0416C162.763 52.3573 162.013 52.5152 161.144 52.5152ZM169.744 44.3784C170.049 43.9499 170.466 43.5946 170.996 43.3127C171.537 43.0195 172.152 42.8729 172.84 42.8729C173.641 42.8729 174.362 43.0702 175.005 43.4649C175.659 43.8597 176.173 44.4235 176.545 45.1566C176.928 45.8784 177.12 46.7185 177.12 47.6771C177.12 48.6357 176.928 49.4872 176.545 50.2315C176.173 50.9646 175.659 51.5341 175.005 51.9401C174.362 52.3461 173.641 52.5491 172.84 52.5491C172.152 52.5491 171.543 52.4081 171.013 52.1262C170.494 51.8442 170.071 51.489 169.744 51.0604V56.8628H167.376V43.0251H169.744V44.3784ZM174.701 47.6771C174.701 47.1133 174.582 46.6283 174.346 46.2223C174.12 45.805 173.816 45.4893 173.432 45.275C173.06 45.0607 172.654 44.9536 172.214 44.9536C171.786 44.9536 171.38 45.0664 170.996 45.2919C170.624 45.5062 170.319 45.822 170.083 46.2392C169.857 46.6565 169.744 47.1471 169.744 47.711C169.744 48.2748 169.857 48.7654 170.083 49.1827C170.319 49.6 170.624 49.9214 170.996 50.1469C171.38 50.3612 171.786 50.4683 172.214 50.4683C172.654 50.4683 173.06 50.3556 173.432 50.13C173.816 49.9045 174.12 49.5831 174.346 49.1658C174.582 48.7485 174.701 48.2523 174.701 47.6771ZM187.553 47.508C187.553 47.8463 187.53 48.1508 187.485 48.4215H180.634C180.69 49.0981 180.927 49.6282 181.344 50.0116C181.762 50.395 182.275 50.5868 182.884 50.5868C183.764 50.5868 184.389 50.209 184.762 49.4534H187.316C187.045 50.3556 186.527 51.0999 185.76 51.6863C184.993 52.2615 184.051 52.5491 182.935 52.5491C182.032 52.5491 181.22 52.3517 180.499 51.957C179.788 51.551 179.23 50.9815 178.824 50.2484C178.429 49.5154 178.232 48.6696 178.232 47.711C178.232 46.7411 178.429 45.8896 178.824 45.1566C179.219 44.4235 179.771 43.8597 180.482 43.4649C181.192 43.0702 182.01 42.8729 182.935 42.8729C183.826 42.8729 184.621 43.0646 185.32 43.448C186.03 43.8315 186.577 44.3784 186.961 45.0889C187.355 45.7881 187.553 46.5945 187.553 47.508ZM185.1 46.8313C185.089 46.2223 184.869 45.7374 184.44 45.3765C184.012 45.0043 183.487 44.8183 182.867 44.8183C182.281 44.8183 181.784 44.9987 181.378 45.3596C180.984 45.7092 180.741 46.1998 180.651 46.8313H185.1ZM194.475 42.8898C195.591 42.8898 196.493 43.245 197.181 43.9555C197.869 44.6547 198.213 45.6359 198.213 46.899V52.3968H195.845V47.2204C195.845 46.4761 195.659 45.9065 195.287 45.5118C194.915 45.1058 194.407 44.9028 193.764 44.9028C193.11 44.9028 192.591 45.1058 192.208 45.5118C191.836 45.9065 191.65 46.4761 191.65 47.2204V52.3968H189.281V43.0251H191.65V44.1923C191.966 43.7864 192.366 43.4706 192.851 43.245C193.347 43.0082 193.888 42.8898 194.475 42.8898ZM203.223 44.9705V49.5041C203.223 49.8199 203.296 50.0511 203.443 50.1977C203.601 50.333 203.86 50.4007 204.221 50.4007H205.32V52.3968H203.832C201.836 52.3968 200.838 51.4269 200.838 49.4872V44.9705H199.721V43.0251H200.838V40.7076H203.223V43.0251H205.32V44.9705H203.223Z" fill="#676A84"/>
<path d="M142.688 91.711C142.688 92.8838 142.383 93.989 141.774 95.0266C141.188 96.0416 140.308 96.8874 139.135 97.5641C137.985 98.2182 136.621 98.6016 135.042 98.7144V101.455H132.876V98.6805C130.621 98.4775 128.805 97.8009 127.429 96.6506C126.053 95.4777 125.343 93.8988 125.298 91.914H130.373C130.508 93.5379 131.343 94.5191 132.876 94.8574V88.3953C131.252 87.9894 129.944 87.5834 128.952 87.1774C127.959 86.7714 127.102 86.1173 126.38 85.2151C125.659 84.3128 125.298 83.0836 125.298 81.5273C125.298 79.565 125.997 77.9635 127.395 76.723C128.816 75.4825 130.643 74.772 132.876 74.5915V71.8511H135.042V74.5915C137.207 74.772 138.932 75.4261 140.218 76.5538C141.526 77.6816 142.259 79.2379 142.417 81.2228H137.308C137.241 80.5687 137.004 80.0048 136.598 79.5311C136.215 79.0349 135.696 78.6853 135.042 78.4823V84.8767C136.733 85.3053 138.064 85.7226 139.034 86.1285C140.026 86.512 140.883 87.1548 141.605 88.057C142.327 88.9367 142.688 90.1547 142.688 91.711ZM130.237 81.2904C130.237 82.0348 130.463 82.6438 130.914 83.1174C131.365 83.5685 132.019 83.9407 132.876 84.2339V78.3808C132.064 78.4936 131.422 78.7981 130.948 79.2943C130.474 79.7905 130.237 80.4559 130.237 81.2904ZM135.042 94.9251C135.899 94.7672 136.564 94.4176 137.038 93.8763C137.534 93.3349 137.782 92.6808 137.782 91.914C137.782 91.1696 137.545 90.5719 137.072 90.1208C136.598 89.6697 135.921 89.2976 135.042 89.0043V94.9251ZM148.923 93.1658C151.089 91.3614 152.814 89.8614 154.1 88.666C155.385 87.448 156.457 86.1849 157.314 84.8767C158.171 83.5685 158.599 82.2829 158.599 81.0198C158.599 79.8695 158.329 78.9673 157.787 78.3132C157.246 77.6591 156.412 77.332 155.284 77.332C154.156 77.332 153.288 77.7154 152.679 78.4823C152.07 79.2266 151.754 80.2529 151.731 81.5611H147.13C147.22 78.8545 148.021 76.802 149.532 75.4035C151.066 74.0051 153.006 73.3059 155.351 73.3059C157.923 73.3059 159.896 73.9938 161.272 75.3697C162.648 76.723 163.336 78.5162 163.336 80.7491C163.336 82.5084 162.862 84.1888 161.915 85.7902C160.968 87.3916 159.885 88.7901 158.667 89.9855C157.449 91.1584 155.859 92.5793 153.897 94.2484H163.877V98.173H147.164V94.6544L148.923 93.1658ZM169.501 98.7482C168.644 98.7482 167.933 98.4888 167.37 97.97C166.828 97.4287 166.558 96.7633 166.558 95.9739C166.558 95.1845 166.828 94.5304 167.37 94.0116C167.933 93.4703 168.644 93.1996 169.501 93.1996C170.336 93.1996 171.023 93.4703 171.565 94.0116C172.106 94.5304 172.377 95.1845 172.377 95.9739C172.377 96.7633 172.106 97.4287 171.565 97.97C171.023 98.4888 170.336 98.7482 169.501 98.7482ZM175.718 80.3431C175.831 78.0876 176.621 76.3508 178.087 75.1329C179.575 73.8923 181.526 73.2721 183.94 73.2721C185.586 73.2721 186.996 73.5653 188.169 74.1517C189.342 74.7156 190.221 75.4937 190.808 76.4862C191.417 77.4561 191.721 78.5613 191.721 79.8018C191.721 81.2228 191.349 82.4295 190.605 83.4219C189.883 84.3918 189.015 85.0459 188 85.3842V85.5196C189.308 85.9255 190.323 86.6473 191.045 87.6849C191.789 88.7224 192.161 90.0532 192.161 91.6771C192.161 93.0305 191.845 94.2372 191.214 95.2973C190.605 96.3573 189.691 97.1919 188.473 97.8009C187.278 98.3873 185.834 98.6805 184.143 98.6805C181.594 98.6805 179.519 98.0377 177.917 96.7521C176.316 95.4664 175.47 93.5718 175.38 91.0681H179.981C180.026 92.1734 180.399 93.0643 181.098 93.7409C181.819 94.395 182.801 94.7221 184.041 94.7221C185.192 94.7221 186.071 94.4063 186.68 93.7748C187.312 93.1207 187.627 92.2861 187.627 91.2711C187.627 89.9178 187.199 88.948 186.342 88.3615C185.485 87.7751 184.154 87.4819 182.35 87.4819H181.368V83.5911H182.35C185.552 83.5911 187.154 82.5197 187.154 80.377C187.154 79.4071 186.861 78.6515 186.274 78.1102C185.71 77.5688 184.887 77.2982 183.804 77.2982C182.744 77.2982 181.921 77.5914 181.335 78.1778C180.771 78.7417 180.444 79.4635 180.353 80.3431H175.718ZM212.482 77.941H201.52V83.7264C201.994 83.14 202.671 82.6663 203.55 82.3054C204.43 81.922 205.366 81.7303 206.358 81.7303C208.163 81.7303 209.64 82.125 210.791 82.9144C211.941 83.7039 212.775 84.7188 213.294 85.9594C213.813 87.1774 214.072 88.4856 214.072 89.884C214.072 92.4778 213.328 94.5642 211.839 96.1431C210.373 97.7219 208.276 98.5114 205.546 98.5114C202.975 98.5114 200.923 97.8686 199.389 96.5829C197.855 95.2973 196.987 93.6169 196.784 91.5418H201.385C201.588 92.444 202.039 93.1658 202.738 93.7071C203.46 94.2484 204.374 94.5191 205.479 94.5191C206.81 94.5191 207.813 94.1018 208.49 93.2673C209.167 92.4327 209.505 91.3275 209.505 89.9517C209.505 88.5532 209.155 87.4931 208.456 86.7714C207.779 86.027 206.776 85.6549 205.445 85.6549C204.498 85.6549 203.708 85.8917 203.077 86.3654C202.445 86.839 201.994 87.4706 201.723 88.26H197.19V73.7795H212.482V77.941ZM217.474 93.7071V89.9855L228.538 74.1517H234.053V89.5795H237.03V93.7071H234.053V98.5114H229.316V93.7071H217.474ZM229.62 79.2266L222.685 89.5795H229.62V79.2266Z" fill="white"/>
<path d="M265.054 252.725C265.054 299.146 227.658 336.778 181.529 336.778C135.399 336.778 98.0039 299.146 98.0039 252.725C98.0039 206.303 135.399 168.671 181.529 168.671C227.658 168.671 265.054 206.303 265.054 252.725ZM114.623 252.725C114.623 289.91 144.578 320.054 181.529 320.054C218.48 320.054 248.435 289.91 248.435 252.725C248.435 215.539 218.48 185.395 181.529 185.395C144.578 185.395 114.623 215.539 114.623 252.725Z" fill="#EDEFFE"/>
<path d="M106.719 260.475C102.15 260.948 98.0208 257.62 98.0044 253.026C97.9598 240.512 100.693 228.108 106.047 216.736C111.386 205.397 119.164 195.437 128.777 187.556C132.356 184.622 137.59 185.719 140.128 189.589C142.645 193.428 141.548 198.542 138.068 201.534C130.921 207.679 125.117 215.292 121.066 223.897C117.01 232.511 114.832 241.864 114.637 251.332C114.543 255.916 111.28 260.002 106.719 260.475Z" fill="#FE6789"/>
<path d="M199.536 326.24C200.632 330.715 197.903 335.277 193.343 335.933C181.743 337.601 169.891 336.798 158.565 333.539C144.561 329.509 131.848 321.864 121.687 311.363C111.525 300.861 104.27 287.868 100.64 273.673C97.7002 262.179 97.2206 250.22 99.1946 238.582C99.9642 234.045 104.595 231.438 109.03 232.666C113.445 233.887 115.985 238.449 115.327 242.982C114.045 251.802 114.513 260.819 116.734 269.505C119.642 280.876 125.454 291.283 133.593 299.696C141.733 308.108 151.917 314.231 163.134 317.46C171.656 319.912 180.55 320.628 189.299 319.599C193.893 319.058 198.436 321.747 199.536 326.24Z" fill="#56378E"/>
<path d="M181.529 177.033C181.529 172.415 185.282 168.627 189.877 169.092C208.963 171.02 226.906 179.519 240.59 193.29C256.254 209.053 265.054 230.432 265.054 252.725C265.054 275.017 256.254 296.396 240.59 312.159C226.906 325.93 208.963 334.429 189.877 336.357C185.282 336.822 181.529 333.034 181.529 328.416C181.529 323.798 185.287 320.108 189.869 319.529C204.539 317.675 218.273 310.966 228.839 300.334C241.386 287.707 248.435 270.581 248.435 252.725C248.435 234.868 241.386 217.742 228.839 205.115C218.273 194.483 204.538 187.774 189.869 185.92C185.287 185.341 181.529 181.651 181.529 177.033Z" fill="#4495C7"/>
<path d="M161.915 257.311C164.848 253.342 165.885 251.053 165.885 247.906C165.885 242.542 161.665 238.394 156.015 238.394C150.436 238.394 146.288 242.292 146.288 247.87C146.288 253.163 149.935 256.954 155.335 256.954C155.979 256.954 156.658 256.847 157.302 256.668L151.044 265H156.265L161.915 257.311ZM161.2 247.87C161.2 251.017 159.126 253.199 156.015 253.199C153.011 253.199 150.901 251.017 150.901 247.87C150.901 244.688 153.011 242.471 156.015 242.471C159.09 242.471 161.2 244.688 161.2 247.87ZM166.568 251.983C166.568 260.065 170.681 265.465 177.619 265.465C184.556 265.465 188.705 260.065 188.705 251.983C188.705 243.865 184.306 238.358 177.619 238.358C170.931 238.358 166.568 243.865 166.568 251.983ZM171.074 251.983C171.074 245.796 173.506 242.399 177.619 242.399C181.767 242.399 184.199 245.796 184.199 251.983C184.199 258.027 181.767 261.424 177.619 261.424C173.506 261.424 171.074 258.027 171.074 251.983ZM202.976 245.224C202.976 241.219 200.115 238.358 196.146 238.358C192.176 238.358 189.315 241.219 189.315 245.224C189.315 249.265 192.176 252.09 196.146 252.09C200.115 252.09 202.976 249.265 202.976 245.224ZM217.316 238.894H212.953L193.106 265H197.469L217.316 238.894ZM199.507 245.224C199.507 247.298 198.148 248.729 196.146 248.729C194.179 248.729 192.82 247.298 192.82 245.224C192.82 243.15 194.143 241.72 196.146 241.72C198.148 241.72 199.507 243.15 199.507 245.224ZM221.143 258.599C221.143 254.594 218.318 251.733 214.348 251.733C210.343 251.733 207.518 254.594 207.518 258.599C207.518 262.604 210.343 265.465 214.348 265.465C218.318 265.465 221.143 262.604 221.143 258.599ZM217.674 258.599C217.674 260.673 216.315 262.103 214.348 262.103C212.346 262.103 210.987 260.673 210.987 258.599C210.987 256.525 212.346 255.094 214.348 255.094C216.315 255.094 217.674 256.525 217.674 258.599Z" fill="white"/>
<path d="M33.0001 401.085C33.0001 401.7 33.5023 402.198 34.1213 402.198H45.3335C45.9525 402.198 46.4547 401.7 46.4547 401.085V397H33.0001V401.085ZM37.485 399.506C37.485 399.353 37.6111 399.228 37.7653 399.228H40.942C41.0962 399.228 41.2223 399.353 41.2223 399.506V400.435C41.2223 400.588 41.0962 400.713 40.942 400.713H37.7653C37.6111 400.713 37.485 400.588 37.485 400.435V399.506ZM34.4951 399.506C34.4951 399.353 34.6212 399.228 34.7754 399.228H36.4572C36.6114 399.228 36.7375 399.353 36.7375 399.506V400.435C36.7375 400.588 36.6114 400.713 36.4572 400.713H34.7754C34.6212 400.713 34.4951 400.588 34.4951 400.435V399.506ZM46.4547 392.916V394.03H33.0001V392.916C33.0001 392.301 33.5023 391.802 34.1213 391.802H45.3335C45.9525 391.802 46.4547 392.301 46.4547 392.916Z" fill="#4495C7"/>
<path d="M55.9992 402.13C57.9311 402.13 59.4601 400.993 59.8275 399.286H58.5949C58.2749 400.341 57.2793 401.016 56.0229 401.016C54.2925 401.016 53.1547 399.713 53.1547 397.71C53.1547 395.707 54.2925 394.403 56.0229 394.403C57.2674 394.403 58.2275 395.078 58.5475 396.193H59.792C59.4719 394.438 57.9904 393.289 56.0585 393.289C53.6051 393.289 51.9339 395.078 51.9339 397.721C51.9339 400.376 53.5577 402.13 55.9992 402.13ZM64.3807 396.157C64.1555 396.11 63.9896 396.086 63.7881 396.086C62.994 396.086 62.4132 396.489 62.1762 397.093L62.1051 396.216H61.0621V402H62.1762V398.93C62.1762 397.816 62.8281 397.176 63.8829 397.176H64.3807V396.157ZM67.7181 402.142C69.1522 402.142 70.1241 401.443 70.4086 400.199H69.3656C69.176 400.862 68.607 401.218 67.7418 401.218C66.6396 401.218 65.9996 400.542 65.9166 399.322L70.3967 399.31V398.895C70.3967 397.176 69.3182 396.038 67.6707 396.038C65.9877 396.038 64.838 397.295 64.838 399.108C64.838 400.91 66.0114 402.142 67.7181 402.142ZM67.6707 396.975C68.6545 396.975 69.2826 397.615 69.2826 398.575H65.9403C66.0825 397.556 66.6988 396.975 67.6707 396.975ZM73.2781 402.142C74.2144 402.142 75.0085 401.728 75.3049 401.064L75.4234 402H76.3716V398.361C76.3716 396.797 75.3997 396.038 73.9656 396.038C72.4722 396.038 71.4766 396.833 71.4766 398.041H72.4485C72.4485 397.342 72.9818 396.927 73.9181 396.927C74.7004 396.927 75.2811 397.271 75.2811 398.243V398.409L73.4559 398.551C72.0929 398.658 71.2988 399.322 71.2988 400.388C71.2988 401.443 72.0336 402.142 73.2781 402.142ZM73.5981 401.277C72.8751 401.277 72.4248 400.969 72.4248 400.353C72.4248 399.784 72.8277 399.404 73.8115 399.31L75.293 399.191V399.499C75.293 400.59 74.653 401.277 73.5981 401.277ZM80.2375 402.142C81.162 402.142 81.9442 401.739 82.3235 400.945L82.4183 402H83.4139V393.277H82.3117V397.141C81.9205 396.43 81.1738 396.038 80.2849 396.038C78.5663 396.038 77.5352 397.342 77.5352 399.12C77.5352 400.886 78.5545 402.142 80.2375 402.142ZM80.4627 401.135C79.3249 401.135 78.6612 400.282 78.6612 399.084C78.6612 397.899 79.3249 397.046 80.4627 397.046C81.6005 397.046 82.2998 397.899 82.2998 399.084C82.2998 400.293 81.6005 401.135 80.4627 401.135ZM85.5664 394.83C85.9694 394.83 86.3012 394.498 86.3012 394.095C86.3012 393.68 85.9694 393.36 85.5664 393.36C85.1634 393.36 84.8315 393.68 84.8315 394.095C84.8315 394.498 85.1634 394.83 85.5664 394.83ZM85.0212 402H86.1353V396.204H85.0212V402ZM89.3884 402V397.141H90.5262V396.204H89.3884V394.391H88.2743V396.204H87.1364V397.141H88.2743V402H89.3884ZM98.5122 402.13C100.444 402.13 101.973 400.993 102.34 399.286H101.108C100.788 400.341 99.7922 401.016 98.5359 401.016C96.8055 401.016 95.6676 399.713 95.6676 397.71C95.6676 395.707 96.8055 394.403 98.5359 394.403C99.7804 394.403 100.74 395.078 101.06 396.193H102.305C101.985 394.438 100.503 393.289 98.5714 393.289C96.118 393.289 94.4469 395.078 94.4469 397.721C94.4469 400.376 96.0706 402.13 98.5122 402.13ZM105.154 402.142C106.09 402.142 106.885 401.728 107.181 401.064L107.299 402H108.248V398.361C108.248 396.797 107.276 396.038 105.842 396.038C104.348 396.038 103.353 396.833 103.353 398.041H104.324C104.324 397.342 104.858 396.927 105.794 396.927C106.576 396.927 107.157 397.271 107.157 398.243V398.409L105.332 398.551C103.969 398.658 103.175 399.322 103.175 400.388C103.175 401.443 103.91 402.142 105.154 402.142ZM105.474 401.277C104.751 401.277 104.301 400.969 104.301 400.353C104.301 399.784 104.704 399.404 105.687 399.31L107.169 399.191V399.499C107.169 400.59 106.529 401.277 105.474 401.277ZM113.109 396.157C112.884 396.11 112.718 396.086 112.517 396.086C111.722 396.086 111.142 396.489 110.905 397.093L110.833 396.216H109.79V402H110.905V398.93C110.905 397.816 111.556 397.176 112.611 397.176H113.109V396.157ZM116.269 402.142C117.193 402.142 117.975 401.739 118.355 400.945L118.45 402H119.445V393.277H118.343V397.141C117.952 396.43 117.205 396.038 116.316 396.038C114.598 396.038 113.566 397.342 113.566 399.12C113.566 400.886 114.586 402.142 116.269 402.142ZM116.494 401.135C115.356 401.135 114.692 400.282 114.692 399.084C114.692 397.899 115.356 397.046 116.494 397.046C117.632 397.046 118.331 397.899 118.331 399.084C118.331 400.293 117.632 401.135 116.494 401.135Z" fill="white"/>
<path d="M142.139 391.879L140.725 394.725L137.561 395.183C136.993 395.265 136.766 395.959 137.177 396.357L139.467 398.571L138.925 401.699C138.828 402.265 139.428 402.688 139.93 402.424L142.761 400.947L145.592 402.424C146.094 402.686 146.694 402.265 146.597 401.699L146.055 398.571L148.345 396.357C148.756 395.959 148.529 395.265 147.961 395.183L144.797 394.725L143.382 391.879C143.129 391.372 142.395 391.365 142.139 391.879Z" fill="#56378E"/>
<path d="M155.606 402V398.61H157.799L159.399 402H160.691L158.949 398.385C160.015 398.041 160.608 397.188 160.608 396.003C160.608 394.403 159.518 393.431 157.681 393.431H154.445V402H155.606ZM155.606 394.474H157.681C158.747 394.474 159.387 395.019 159.387 396.015C159.387 396.998 158.771 397.579 157.692 397.579H155.606V394.474ZM164.094 402.142C165.528 402.142 166.5 401.443 166.785 400.199H165.742C165.552 400.862 164.983 401.218 164.118 401.218C163.016 401.218 162.376 400.542 162.293 399.322L166.773 399.31V398.895C166.773 397.176 165.694 396.038 164.047 396.038C162.364 396.038 161.214 397.295 161.214 399.108C161.214 400.91 162.388 402.142 164.094 402.142ZM164.047 396.975C165.031 396.975 165.659 397.615 165.659 398.575H162.316C162.459 397.556 163.075 396.975 164.047 396.975ZM167.638 399.108C167.638 400.933 168.764 402.142 170.471 402.142C171.869 402.142 172.948 401.301 173.173 400.045H172.059C171.857 400.732 171.265 401.147 170.471 401.147C169.416 401.147 168.74 400.341 168.74 399.096C168.74 397.84 169.463 397.034 170.518 397.034C171.265 397.034 171.857 397.425 172.047 398.16H173.161C172.96 396.868 171.94 396.038 170.483 396.038C168.788 396.038 167.638 397.295 167.638 399.108ZM173.969 399.096C173.969 400.886 175.249 402.142 176.992 402.142C178.722 402.142 180.002 400.886 180.002 399.096C180.002 397.307 178.722 396.05 176.992 396.05C175.249 396.05 173.969 397.307 173.969 399.096ZM175.095 399.096C175.095 397.887 175.866 397.046 176.992 397.046C178.106 397.046 178.888 397.887 178.888 399.096C178.888 400.305 178.106 401.147 176.992 401.147C175.866 401.147 175.095 400.305 175.095 399.096ZM182.349 402V398.563C182.349 397.639 182.906 397.058 183.748 397.058C184.53 397.058 185.028 397.556 185.028 398.468V402H186.13V398.563C186.13 397.639 186.687 397.046 187.529 397.046C188.311 397.046 188.821 397.567 188.821 398.48V402H189.911V398.207C189.911 396.868 189.105 396.038 187.778 396.038C186.877 396.038 186.178 396.489 185.905 397.212C185.609 396.489 184.969 396.038 184.068 396.038C183.25 396.038 182.634 396.418 182.338 396.963L182.231 396.204H181.235V402H182.349ZM193.956 402.142C195.39 402.142 196.362 401.443 196.647 400.199H195.604C195.414 400.862 194.845 401.218 193.98 401.218C192.878 401.218 192.238 400.542 192.155 399.322L196.635 399.31V398.895C196.635 397.176 195.556 396.038 193.909 396.038C192.226 396.038 191.076 397.295 191.076 399.108C191.076 400.91 192.25 402.142 193.956 402.142ZM193.909 396.975C194.893 396.975 195.521 397.615 195.521 398.575H192.179C192.321 397.556 192.937 396.975 193.909 396.975ZM198.993 402V398.93C198.993 397.804 199.598 397.058 200.641 397.058C201.494 397.058 202.039 397.532 202.039 398.705V402H203.154V398.456C203.154 396.975 202.454 396.038 200.925 396.038C200.108 396.038 199.373 396.43 199.005 397.093L198.887 396.204H197.879V402H198.993ZM207.02 402.142C207.944 402.142 208.726 401.739 209.106 400.945L209.201 402H210.196V393.277H209.094V397.141C208.703 396.43 207.956 396.038 207.067 396.038C205.349 396.038 204.317 397.342 204.317 399.12C204.317 400.886 205.337 402.142 207.02 402.142ZM207.245 401.135C206.107 401.135 205.443 400.282 205.443 399.084C205.443 397.899 206.107 397.046 207.245 397.046C208.383 397.046 209.082 397.899 209.082 399.084C209.082 400.293 208.383 401.135 207.245 401.135ZM213.498 402.142C214.435 402.142 215.229 401.728 215.525 401.064L215.644 402H216.592V398.361C216.592 396.797 215.62 396.038 214.186 396.038C212.692 396.038 211.697 396.833 211.697 398.041H212.669C212.669 397.342 213.202 396.927 214.138 396.927C214.921 396.927 215.501 397.271 215.501 398.243V398.409L213.676 398.551C212.313 398.658 211.519 399.322 211.519 400.388C211.519 401.443 212.254 402.142 213.498 402.142ZM213.818 401.277C213.095 401.277 212.645 400.969 212.645 400.353C212.645 399.784 213.048 399.404 214.032 399.31L215.513 399.191V399.499C215.513 400.59 214.873 401.277 213.818 401.277ZM219.678 402V397.141H220.815V396.204H219.678V394.391H218.564V396.204H217.426V397.141H218.564V402H219.678ZM222.361 394.83C222.763 394.83 223.095 394.498 223.095 394.095C223.095 393.68 222.763 393.36 222.361 393.36C221.958 393.36 221.626 393.68 221.626 394.095C221.626 394.498 221.958 394.83 222.361 394.83ZM221.815 402H222.929V396.204H221.815V402ZM224.168 399.096C224.168 400.886 225.448 402.142 227.19 402.142C228.92 402.142 230.2 400.886 230.2 399.096C230.2 397.307 228.92 396.05 227.19 396.05C225.448 396.05 224.168 397.307 224.168 399.096ZM225.294 399.096C225.294 397.887 226.064 397.046 227.19 397.046C228.304 397.046 229.086 397.887 229.086 399.096C229.086 400.305 228.304 401.147 227.19 401.147C226.064 401.147 225.294 400.305 225.294 399.096ZM232.548 402V398.93C232.548 397.804 233.152 397.058 234.195 397.058C235.049 397.058 235.594 397.532 235.594 398.705V402H236.708V398.456C236.708 396.975 236.009 396.038 234.48 396.038C233.662 396.038 232.927 396.43 232.56 397.093L232.441 396.204H231.434V402H232.548Z" fill="white"/>
<path d="M260.306 401.412C260.306 401.846 260.197 402.261 259.98 402.659C259.764 403.047 259.443 403.372 259.018 403.634C258.603 403.896 258.102 404.045 257.515 404.081V405.179H256.783V404.081C255.961 404.009 255.293 403.747 254.778 403.296C254.263 402.835 254.001 402.252 253.992 401.548H255.306C255.342 401.927 255.482 402.257 255.726 402.537C255.979 402.817 256.331 402.993 256.783 403.065V399.678C256.178 399.525 255.69 399.366 255.32 399.204C254.949 399.041 254.633 398.788 254.371 398.445C254.109 398.102 253.978 397.641 253.978 397.063C253.978 396.332 254.231 395.726 254.737 395.248C255.252 394.769 255.934 394.503 256.783 394.448V393.324H257.515V394.448C258.282 394.512 258.901 394.76 259.371 395.194C259.84 395.618 260.111 396.174 260.184 396.86H258.869C258.824 396.544 258.684 396.259 258.449 396.006C258.215 395.744 257.903 395.573 257.515 395.492V398.797C258.111 398.951 258.594 399.109 258.964 399.272C259.344 399.425 259.66 399.674 259.913 400.017C260.175 400.36 260.306 400.825 260.306 401.412ZM255.238 396.995C255.238 397.438 255.369 397.777 255.631 398.012C255.893 398.246 256.277 398.441 256.783 398.594V395.464C256.313 395.51 255.938 395.663 255.658 395.925C255.378 396.178 255.238 396.535 255.238 396.995ZM257.515 403.079C258.002 403.025 258.382 402.848 258.653 402.55C258.933 402.252 259.073 401.896 259.073 401.48C259.073 401.037 258.937 400.699 258.666 400.464C258.395 400.22 258.011 400.026 257.515 399.881V403.079Z" fill="#FE6789"/>
<path d="M267.552 396.498H270.135V404H271.297V396.498H273.869V395.431H267.552V396.498ZM277.46 398.157C277.234 398.11 277.068 398.086 276.867 398.086C276.073 398.086 275.492 398.489 275.255 399.093L275.184 398.216H274.141V404H275.255V400.93C275.255 399.816 275.907 399.176 276.962 399.176H277.46V398.157ZM279.968 404.142C280.904 404.142 281.698 403.728 281.995 403.064L282.113 404H283.061V400.361C283.061 398.797 282.089 398.038 280.655 398.038C279.162 398.038 278.166 398.833 278.166 400.041H279.138C279.138 399.342 279.672 398.927 280.608 398.927C281.39 398.927 281.971 399.271 281.971 400.243V400.409L280.146 400.551C278.783 400.658 277.989 401.322 277.989 402.388C277.989 403.443 278.723 404.142 279.968 404.142ZM280.288 403.277C279.565 403.277 279.115 402.969 279.115 402.353C279.115 401.784 279.517 401.404 280.501 401.31L281.983 401.191V401.499C281.983 402.59 281.343 403.277 280.288 403.277ZM285.718 404V400.93C285.718 399.804 286.323 399.058 287.366 399.058C288.219 399.058 288.764 399.532 288.764 400.705V404H289.878V400.456C289.878 398.975 289.179 398.038 287.65 398.038C286.832 398.038 286.098 398.43 285.73 399.093L285.612 398.204H284.604V404H285.718ZM290.878 402.317C290.878 403.419 291.743 404.142 293.106 404.142C294.481 404.142 295.429 403.443 295.429 402.341C295.429 401.476 294.943 401.025 293.96 400.788L292.94 400.539C292.371 400.397 292.087 400.136 292.087 399.745C292.087 399.212 292.478 398.904 293.177 398.904C293.853 398.904 294.244 399.271 294.268 399.852H295.334C295.311 398.75 294.481 398.038 293.213 398.038C291.933 398.038 291.032 398.714 291.032 399.781C291.032 400.634 291.518 401.144 292.549 401.393L293.568 401.63C294.173 401.784 294.363 402.021 294.363 402.412C294.363 402.945 293.912 403.265 293.13 403.265C292.395 403.265 291.945 402.91 291.945 402.317H290.878ZM298.36 404.142C299.296 404.142 300.09 403.728 300.386 403.064L300.505 404H301.453V400.361C301.453 398.797 300.481 398.038 299.047 398.038C297.554 398.038 296.558 398.833 296.558 400.041H297.53C297.53 399.342 298.063 398.927 299 398.927C299.782 398.927 300.363 399.271 300.363 400.243V400.409L298.537 400.551C297.174 400.658 296.38 401.322 296.38 402.388C296.38 403.443 297.115 404.142 298.36 404.142ZM298.68 403.277C297.957 403.277 297.506 402.969 297.506 402.353C297.506 401.784 297.909 401.404 298.893 401.31L300.375 401.191V401.499C300.375 402.59 299.735 403.277 298.68 403.277ZM302.617 401.108C302.617 402.933 303.743 404.142 305.449 404.142C306.848 404.142 307.927 403.301 308.152 402.045H307.038C306.836 402.732 306.244 403.147 305.449 403.147C304.395 403.147 303.719 402.341 303.719 401.096C303.719 399.84 304.442 399.034 305.497 399.034C306.244 399.034 306.836 399.425 307.026 400.16H308.14C307.938 398.868 306.919 398.038 305.461 398.038C303.766 398.038 302.617 399.295 302.617 401.108ZM310.963 404V399.141H312.101V398.204H310.963V396.391H309.849V398.204H308.711V399.141H309.849V404H310.963ZM313.646 396.83C314.049 396.83 314.381 396.498 314.381 396.095C314.381 395.68 314.049 395.36 313.646 395.36C313.243 395.36 312.911 395.68 312.911 396.095C312.911 396.498 313.243 396.83 313.646 396.83ZM313.1 404H314.215V398.204H313.1V404ZM315.453 401.096C315.453 402.886 316.733 404.142 318.475 404.142C320.206 404.142 321.486 402.886 321.486 401.096C321.486 399.307 320.206 398.05 318.475 398.05C316.733 398.05 315.453 399.307 315.453 401.096ZM316.579 401.096C316.579 399.887 317.349 399.046 318.475 399.046C319.589 399.046 320.371 399.887 320.371 401.096C320.371 402.305 319.589 403.147 318.475 403.147C317.349 403.147 316.579 402.305 316.579 401.096ZM323.833 404V400.93C323.833 399.804 324.437 399.058 325.48 399.058C326.334 399.058 326.879 399.532 326.879 400.705V404H327.993V400.456C327.993 398.975 327.294 398.038 325.765 398.038C324.947 398.038 324.212 398.43 323.845 399.093L323.726 398.204H322.719V404H323.833Z" fill="white"/>
</svg>
