<svg width="18" height="18" viewBox="0 0 18 18" fill="none" xmlns="http://www.w3.org/2000/svg">
<path fill-rule="evenodd" clip-rule="evenodd" d="M13.3929 15.3128C14.7977 15.3128 15.9369 14.1743 15.9377 12.7696V12.7681V10.7431C15.0099 10.7431 14.2584 9.99156 14.2577 9.06381C14.2577 8.13681 15.0092 7.38456 15.9369 7.38456H15.9377V5.35956C15.9392 3.95406 14.8014 2.81406 13.3967 2.81256H13.3922H4.60815C3.20265 2.81256 2.0634 3.95106 2.06265 5.35656V5.35731V7.44981C2.95815 7.41831 3.7089 8.11881 3.7404 9.01431C3.74115 9.03081 3.7419 9.04731 3.7419 9.06381C3.74265 9.99006 2.9934 10.7416 2.06715 10.7431H2.06265V12.7681C2.0619 14.1728 3.20115 15.3128 4.6059 15.3128H4.60665H13.3929Z" stroke="#757590" stroke-linecap="round" stroke-linejoin="round"/>
<path fill-rule="evenodd" clip-rule="evenodd" d="M9.27848 6.7973L9.74048 7.73255C9.78548 7.82405 9.87248 7.8878 9.97373 7.9028L11.0065 8.05355C11.2622 8.09105 11.3635 8.40455 11.179 8.5838L10.432 9.3113C10.3585 9.38255 10.3255 9.4853 10.342 9.58655L10.5182 10.6141C10.5617 10.8683 10.2955 11.0618 10.0675 10.9418L9.14423 10.4566C9.05348 10.4086 8.94548 10.4086 8.85473 10.4566L7.93223 10.9418C7.70348 11.0618 7.43723 10.8683 7.48073 10.6141L7.65698 9.58655C7.67423 9.4853 7.64048 9.38255 7.56698 9.3113L6.82073 8.5838C6.63623 8.40455 6.73748 8.09105 6.99248 8.05355L8.02523 7.9028C8.12648 7.8878 8.21423 7.82405 8.25923 7.73255L8.72048 6.7973C8.83448 6.5663 9.16448 6.5663 9.27848 6.7973Z" fill="#757590"/>
</svg>
