<svg width="359" height="217" viewBox="0 0 359 217" fill="none" xmlns="http://www.w3.org/2000/svg">
<g clip-path="url(#clip0_1_231)">
<rect width="359" height="216.216" rx="11.7445" fill="#5EEFFF"/>
<rect x="-9.828" y="272.235" width="272.235" height="372.481" transform="rotate(-90 -9.828 272.235)" fill="#FE6789"/>
<path d="M29.2775 29.5806C30.7869 29.5806 32.106 29.873 33.2346 30.4577C34.3769 31.0288 35.254 31.8583 35.866 32.9462C36.4915 34.0205 36.8042 35.2784 36.8042 36.7198C36.8042 38.1612 36.4915 39.4123 35.866 40.473C35.254 41.5337 34.3769 42.3496 33.2346 42.9207C32.106 43.4782 30.7869 43.757 29.2775 43.757H24.6472V29.5806H29.2775ZM29.2775 41.86C30.9365 41.86 32.208 41.4113 33.0919 40.5138C33.9758 39.6163 34.4177 38.3516 34.4177 36.7198C34.4177 35.0744 33.9758 33.7893 33.0919 32.8646C32.208 31.9399 30.9365 31.4776 29.2775 31.4776H26.9725V41.86H29.2775ZM48.8549 37.8621C48.8549 38.2836 48.8277 38.6644 48.7733 39.0043H40.1859C40.2539 39.9018 40.587 40.6226 41.1854 41.1665C41.7837 41.7104 42.518 41.9824 43.3883 41.9824C44.6394 41.9824 45.5233 41.4589 46.04 40.4118H48.5489C48.209 41.4453 47.5902 42.2952 46.6927 42.9615C45.8088 43.6142 44.7074 43.9406 43.3883 43.9406C42.314 43.9406 41.3485 43.7026 40.4918 43.2267C39.6487 42.7371 38.9824 42.0572 38.4929 41.1869C38.0169 40.303 37.7789 39.2831 37.7789 38.1272C37.7789 36.9714 38.0101 35.9583 38.4725 35.088C38.9484 34.2041 39.6079 33.5242 40.451 33.0482C41.3077 32.5723 42.2868 32.3343 43.3883 32.3343C44.449 32.3343 45.3941 32.5655 46.2236 33.0278C47.0531 33.4902 47.699 34.1429 48.1614 34.986C48.6237 35.8155 48.8549 36.7742 48.8549 37.8621ZM46.4276 37.1278C46.414 36.2711 46.108 35.5843 45.5097 35.0676C44.9113 34.5508 44.1702 34.2925 43.2863 34.2925C42.484 34.2925 41.7973 34.5508 41.2262 35.0676C40.655 35.5707 40.3151 36.2575 40.2063 37.1278H46.4276ZM52.9138 34.1905C53.3082 33.6465 53.8453 33.2046 54.5252 32.8646C55.2187 32.5111 55.9871 32.3343 56.8302 32.3343C57.8229 32.3343 58.7204 32.5723 59.5227 33.0482C60.325 33.5242 60.9573 34.2041 61.4197 35.088C61.882 35.9583 62.1132 36.9578 62.1132 38.0864C62.1132 39.2151 61.882 40.2282 61.4197 41.1257C60.9573 42.0096 60.3182 42.7031 59.5023 43.2063C58.7 43.6958 57.8093 43.9406 56.8302 43.9406C55.9599 43.9406 55.1847 43.7706 54.5048 43.4307C53.8385 43.0907 53.3082 42.6555 52.9138 42.1252V43.757H50.5885V28.6627H52.9138V34.1905ZM59.747 38.0864C59.747 37.3113 59.5839 36.645 59.2575 36.0875C58.9447 35.5163 58.5232 35.088 57.9928 34.8024C57.4761 34.5032 56.9186 34.3537 56.3202 34.3537C55.7355 34.3537 55.1779 34.5032 54.6476 34.8024C54.1309 35.1016 53.7093 35.5367 53.3829 36.1079C53.0702 36.679 52.9138 37.3521 52.9138 38.1272C52.9138 38.9024 53.0702 39.5823 53.3829 40.167C53.7093 40.7382 54.1309 41.1733 54.6476 41.4725C55.1779 41.7716 55.7355 41.9212 56.3202 41.9212C56.9186 41.9212 57.4761 41.7716 57.9928 41.4725C58.5232 41.1597 58.9447 40.711 59.2575 40.1262C59.5839 39.5415 59.747 38.8616 59.747 38.0864ZM65.041 31.0288C64.6194 31.0288 64.2658 30.886 63.9803 30.6005C63.6947 30.3149 63.5519 29.9614 63.5519 29.5398C63.5519 29.1182 63.6947 28.7647 63.9803 28.4791C64.2658 28.1935 64.6194 28.0508 65.041 28.0508C65.4489 28.0508 65.7957 28.1935 66.0812 28.4791C66.3668 28.7647 66.5096 29.1182 66.5096 29.5398C66.5096 29.9614 66.3668 30.3149 66.0812 30.6005C65.7957 30.886 65.4489 31.0288 65.041 31.0288ZM66.1832 32.5179V43.757H63.8579V32.5179H66.1832ZM71.3943 34.4149V40.6362C71.3943 41.0577 71.4895 41.3637 71.6798 41.5541C71.8838 41.7308 72.2238 41.8192 72.6997 41.8192H74.1276V43.757H72.2918C71.2447 43.757 70.4424 43.5122 69.8848 43.0227C69.3273 42.5332 69.0485 41.7376 69.0485 40.6362V34.4149H67.7227V32.5179H69.0485V29.7234H71.3943V32.5179H74.1276V34.4149H71.3943Z" fill="white"/>
<path d="M28.1861 183.678L31.7109 189.341H29.6221L27.0602 185.228L24.6614 189.341H22.589L26.1137 183.678L22.5727 177.999H24.6614L27.2397 182.144L29.6548 177.999H31.7272L28.1861 183.678ZM34.1448 179.158C33.8076 179.158 33.5247 179.044 33.2963 178.815C33.0678 178.587 32.9536 178.304 32.9536 177.967C32.9536 177.629 33.0678 177.347 33.2963 177.118C33.5247 176.89 33.8076 176.776 34.1448 176.776C34.4712 176.776 34.7486 176.89 34.9771 177.118C35.2055 177.347 35.3197 177.629 35.3197 177.967C35.3197 178.304 35.2055 178.587 34.9771 178.815C34.7486 179.044 34.4712 179.158 34.1448 179.158ZM35.0586 180.349V189.341H33.1984V180.349H35.0586ZM41.5969 180.202C42.2822 180.202 42.8915 180.349 43.4245 180.643C43.9685 180.937 44.3927 181.372 44.6973 181.948C45.0128 182.525 45.1706 183.221 45.1706 184.037V189.341H43.3266V184.315C43.3266 183.509 43.1254 182.895 42.7228 182.471C42.3203 182.035 41.7709 181.818 41.0747 181.818C40.3785 181.818 39.8236 182.035 39.4102 182.471C39.0077 182.895 38.8065 183.509 38.8065 184.315V189.341H36.9462V177.265H38.8065V181.394C39.122 181.013 39.519 180.719 39.9977 180.512C40.4872 180.306 41.0203 180.202 41.5969 180.202ZM55.1314 180.349V189.341H53.2711V188.28C52.9774 188.65 52.5912 188.943 52.1125 189.161C51.6448 189.368 51.1443 189.471 50.6113 189.471C49.9042 189.471 49.2677 189.324 48.702 189.03C48.1472 188.737 47.7066 188.302 47.3803 187.725C47.0648 187.148 46.907 186.452 46.907 185.636V180.349H48.751V185.359C48.751 186.164 48.9523 186.784 49.3548 187.219C49.7573 187.643 50.3067 187.856 51.0029 187.856C51.6992 187.856 52.2485 187.643 52.651 187.219C53.0644 186.784 53.2711 186.164 53.2711 185.359V180.349H55.1314ZM66.606 189.341L63.9951 184.804H62.5754V189.341H60.7152V177.999H64.6315C65.5018 177.999 66.2361 178.152 66.8345 178.456C67.4437 178.761 67.8952 179.169 68.1889 179.68C68.4935 180.191 68.6458 180.763 68.6458 181.394C68.6458 182.133 68.4282 182.808 67.9931 183.417C67.5688 184.015 66.9106 184.423 66.0186 184.641L68.8253 189.341H66.606ZM62.5754 183.319H64.6315C65.3278 183.319 65.85 183.145 66.1981 182.797C66.5571 182.449 66.7366 181.981 66.7366 181.394C66.7366 180.806 66.5625 180.349 66.2144 180.023C65.8663 179.686 65.3386 179.517 64.6315 179.517H62.5754V183.319ZM74.3708 189.487C73.5223 189.487 72.7553 189.297 72.0699 188.916C71.3846 188.525 70.8461 187.981 70.4544 187.284C70.0628 186.577 69.867 185.761 69.867 184.837C69.867 183.923 70.0682 183.112 70.4708 182.405C70.8733 181.698 71.4227 181.154 72.1189 180.773C72.8151 180.393 73.593 180.202 74.4524 180.202C75.3118 180.202 76.0897 180.393 76.7859 180.773C77.4821 181.154 78.0315 181.698 78.434 182.405C78.8365 183.112 79.0378 183.923 79.0378 184.837C79.0378 185.751 78.8311 186.561 78.4177 187.268C78.0043 187.975 77.4386 188.525 76.7206 188.916C76.0135 189.297 75.2302 189.487 74.3708 189.487ZM74.3708 187.872C74.8495 187.872 75.2955 187.758 75.7089 187.529C76.1332 187.301 76.4759 186.958 76.7369 186.501C76.998 186.044 77.1286 185.489 77.1286 184.837C77.1286 184.184 77.0035 183.635 76.7533 183.189C76.503 182.732 76.1712 182.389 75.7579 182.161C75.3445 181.932 74.8984 181.818 74.4198 181.818C73.9411 181.818 73.4951 181.932 73.0817 182.161C72.6792 182.389 72.3582 182.732 72.1189 183.189C71.8796 183.635 71.7599 184.184 71.7599 184.837C71.7599 185.805 72.0047 186.556 72.4942 187.089C72.9946 187.611 73.6202 187.872 74.3708 187.872ZM82.1822 181.687C82.4977 181.252 82.9274 180.899 83.4714 180.627C84.0262 180.344 84.6408 180.202 85.3153 180.202C86.1095 180.202 86.8275 180.393 87.4693 180.773C88.1112 181.154 88.617 181.698 88.9869 182.405C89.3568 183.102 89.5417 183.901 89.5417 184.804C89.5417 185.707 89.3568 186.517 88.9869 187.235C88.617 187.943 88.1057 188.497 87.453 188.9C86.8112 189.292 86.0986 189.487 85.3153 189.487C84.6191 189.487 83.999 189.351 83.4551 189.079C82.922 188.807 82.4977 188.459 82.1822 188.035V189.341H80.322V177.265H82.1822V181.687ZM87.6488 184.804C87.6488 184.184 87.5183 183.651 87.2572 183.205C87.007 182.748 86.6697 182.405 86.2455 182.177C85.8321 181.937 85.386 181.818 84.9074 181.818C84.4396 181.818 83.9936 181.937 83.5693 182.177C83.1559 182.416 82.8187 182.764 82.5576 183.221C82.3073 183.678 82.1822 184.217 82.1822 184.837C82.1822 185.457 82.3073 186.001 82.5576 186.469C82.8187 186.925 83.1559 187.274 83.5693 187.513C83.9936 187.752 84.4396 187.872 84.9074 187.872C85.386 187.872 85.8321 187.752 86.2455 187.513C86.6697 187.263 87.007 186.904 87.2572 186.436C87.5183 185.968 87.6488 185.424 87.6488 184.804ZM99.0672 184.625C99.0672 184.962 99.0455 185.266 99.002 185.538H92.132C92.1864 186.256 92.4529 186.833 92.9316 187.268C93.4103 187.703 93.9977 187.921 94.694 187.921C95.6948 187.921 96.4019 187.502 96.8153 186.664H98.8225C98.5505 187.491 98.0555 188.171 97.3375 188.704C96.6304 189.226 95.7492 189.487 94.694 189.487C93.8345 189.487 93.0621 189.297 92.3768 188.916C91.7023 188.525 91.1692 187.981 90.7776 187.284C90.3968 186.577 90.2065 185.761 90.2065 184.837C90.2065 183.912 90.3914 183.102 90.7613 182.405C91.142 181.698 91.6696 181.154 92.3441 180.773C93.0295 180.393 93.8128 180.202 94.694 180.202C95.5425 180.202 96.2986 180.387 96.9622 180.757C97.6258 181.127 98.1425 181.649 98.5124 182.324C98.8823 182.987 99.0672 183.754 99.0672 184.625ZM97.1254 184.037C97.1145 183.352 96.8697 182.802 96.391 182.389C95.9124 181.976 95.3195 181.769 94.6124 181.769C93.9705 181.769 93.4211 181.976 92.9642 182.389C92.5073 182.791 92.2353 183.341 92.1483 184.037H97.1254ZM102.203 181.655C102.475 181.198 102.834 180.844 103.28 180.594C103.737 180.333 104.276 180.202 104.896 180.202V182.128H104.423C103.694 182.128 103.139 182.313 102.758 182.683C102.388 183.053 102.203 183.694 102.203 184.608V189.341H100.343V180.349H102.203V181.655ZM108.221 181.867V186.844C108.221 187.181 108.298 187.426 108.45 187.578C108.613 187.72 108.885 187.79 109.266 187.79H110.408V189.341H108.939C108.102 189.341 107.46 189.145 107.014 188.753C106.568 188.361 106.345 187.725 106.345 186.844V181.867H105.284V180.349H106.345V178.114H108.221V180.349H110.408V181.867H108.221ZM114.831 189.487C114.124 189.487 113.488 189.362 112.922 189.112C112.367 188.851 111.927 188.503 111.6 188.068C111.274 187.622 111.1 187.127 111.078 186.583H113.004C113.036 186.963 113.216 187.284 113.542 187.546C113.879 187.796 114.298 187.921 114.799 187.921C115.321 187.921 115.723 187.823 116.006 187.627C116.3 187.42 116.447 187.159 116.447 186.844C116.447 186.507 116.284 186.256 115.957 186.093C115.642 185.93 115.136 185.751 114.44 185.555C113.765 185.37 113.216 185.19 112.792 185.016C112.367 184.842 111.997 184.576 111.682 184.217C111.377 183.858 111.225 183.384 111.225 182.797C111.225 182.318 111.366 181.883 111.649 181.491C111.932 181.089 112.335 180.773 112.857 180.545C113.39 180.317 113.999 180.202 114.684 180.202C115.707 180.202 116.528 180.463 117.149 180.986C117.78 181.497 118.117 182.199 118.16 183.091H116.3C116.267 182.688 116.104 182.367 115.81 182.128C115.517 181.889 115.12 181.769 114.619 181.769C114.13 181.769 113.754 181.861 113.493 182.046C113.232 182.231 113.102 182.476 113.102 182.781C113.102 183.02 113.189 183.221 113.363 183.384C113.537 183.548 113.749 183.678 113.999 183.776C114.249 183.863 114.619 183.977 115.109 184.119C115.761 184.293 116.295 184.472 116.708 184.657C117.132 184.831 117.497 185.092 117.801 185.44C118.106 185.789 118.264 186.251 118.274 186.828C118.274 187.339 118.133 187.796 117.85 188.198C117.567 188.601 117.165 188.916 116.643 189.145C116.131 189.373 115.528 189.487 114.831 189.487ZM123.63 189.487C122.781 189.487 122.014 189.297 121.329 188.916C120.644 188.525 120.105 187.981 119.713 187.284C119.322 186.577 119.126 185.761 119.126 184.837C119.126 183.923 119.327 183.112 119.73 182.405C120.132 181.698 120.682 181.154 121.378 180.773C122.074 180.393 122.852 180.202 123.711 180.202C124.571 180.202 125.349 180.393 126.045 180.773C126.741 181.154 127.291 181.698 127.693 182.405C128.096 183.112 128.297 183.923 128.297 184.837C128.297 185.751 128.09 186.561 127.677 187.268C127.263 187.975 126.698 188.525 125.98 188.916C125.272 189.297 124.489 189.487 123.63 189.487ZM123.63 187.872C124.108 187.872 124.554 187.758 124.968 187.529C125.392 187.301 125.735 186.958 125.996 186.501C126.257 186.044 126.388 185.489 126.388 184.837C126.388 184.184 126.262 183.635 126.012 183.189C125.762 182.732 125.43 182.389 125.017 182.161C124.603 181.932 124.157 181.818 123.679 181.818C123.2 181.818 122.754 181.932 122.341 182.161C121.938 182.389 121.617 182.732 121.378 183.189C121.139 183.635 121.019 184.184 121.019 184.837C121.019 185.805 121.264 186.556 121.753 187.089C122.254 187.611 122.879 187.872 123.63 187.872ZM134.117 180.202C134.825 180.202 135.456 180.349 136.01 180.643C136.576 180.937 137.017 181.372 137.332 181.948C137.648 182.525 137.805 183.221 137.805 184.037V189.341H135.961V184.315C135.961 183.509 135.76 182.895 135.358 182.471C134.955 182.035 134.406 181.818 133.709 181.818C133.013 181.818 132.458 182.035 132.045 182.471C131.642 182.895 131.441 183.509 131.441 184.315V189.341H129.581V180.349H131.441V181.377C131.746 181.007 132.132 180.719 132.6 180.512C133.078 180.306 133.584 180.202 134.117 180.202Z" fill="white"/>
<path d="M290.626 183.237C290.626 181.355 290.942 179.886 291.573 178.831C292.214 177.765 293.313 177.232 294.869 177.232C296.424 177.232 297.518 177.765 298.149 178.831C298.791 179.886 299.112 181.355 299.112 183.237C299.112 185.141 298.791 186.631 298.149 187.708C297.518 188.774 296.424 189.307 294.869 189.307C293.313 189.307 292.214 188.774 291.573 187.708C290.942 186.631 290.626 185.141 290.626 183.237ZM297.284 183.237C297.284 182.356 297.224 181.611 297.104 181.001C296.996 180.392 296.767 179.897 296.419 179.516C296.071 179.125 295.554 178.929 294.869 178.929C294.183 178.929 293.667 179.125 293.319 179.516C292.97 179.897 292.737 180.392 292.617 181.001C292.508 181.611 292.454 182.356 292.454 183.237C292.454 184.151 292.508 184.918 292.617 185.538C292.726 186.158 292.954 186.658 293.302 187.039C293.661 187.42 294.183 187.61 294.869 187.61C295.554 187.61 296.071 187.42 296.419 187.039C296.778 186.658 297.012 186.158 297.121 185.538C297.229 184.918 297.284 184.151 297.284 183.237ZM302.532 183.123C301.401 182.557 300.835 181.665 300.835 180.447C300.835 179.859 300.982 179.321 301.276 178.831C301.569 178.342 302.01 177.955 302.597 177.672C303.185 177.379 303.903 177.232 304.751 177.232C305.589 177.232 306.302 177.379 306.889 177.672C307.488 177.955 307.934 178.342 308.227 178.831C308.521 179.321 308.668 179.859 308.668 180.447C308.668 181.056 308.51 181.594 308.195 182.062C307.89 182.519 307.482 182.873 306.971 183.123C307.591 183.351 308.08 183.727 308.439 184.249C308.798 184.76 308.978 185.364 308.978 186.06C308.978 186.767 308.798 187.393 308.439 187.937C308.08 188.481 307.58 188.899 306.938 189.193C306.296 189.487 305.567 189.634 304.751 189.634C303.936 189.634 303.207 189.487 302.565 189.193C301.934 188.899 301.439 188.481 301.08 187.937C300.721 187.393 300.541 186.767 300.541 186.06C300.541 185.353 300.721 184.744 301.08 184.232C301.439 183.721 301.923 183.351 302.532 183.123ZM306.889 180.675C306.889 180.066 306.699 179.598 306.318 179.272C305.937 178.945 305.415 178.782 304.751 178.782C304.099 178.782 303.582 178.945 303.201 179.272C302.821 179.598 302.63 180.071 302.63 180.691C302.63 181.235 302.826 181.681 303.218 182.029C303.62 182.367 304.131 182.535 304.751 182.535C305.372 182.535 305.883 182.361 306.285 182.013C306.688 181.665 306.889 181.219 306.889 180.675ZM304.751 183.939C304.033 183.939 303.446 184.118 302.989 184.477C302.543 184.825 302.32 185.331 302.32 185.995C302.32 186.615 302.538 187.121 302.973 187.512C303.408 187.893 304.001 188.083 304.751 188.083C305.491 188.083 306.073 187.888 306.498 187.496C306.933 187.104 307.15 186.604 307.15 185.995C307.15 185.342 306.927 184.836 306.481 184.477C306.046 184.118 305.469 183.939 304.751 183.939ZM316.659 173.936L312.22 192.196H310.393L314.815 173.936H316.659ZM319.232 186.811C320.276 185.908 321.097 185.168 321.696 184.591C322.305 184.004 322.811 183.395 323.213 182.764C323.616 182.133 323.817 181.502 323.817 180.871C323.817 180.218 323.659 179.707 323.344 179.337C323.039 178.967 322.555 178.782 321.892 178.782C321.25 178.782 320.749 178.989 320.39 179.402C320.042 179.805 319.857 180.349 319.835 181.034H318.04C318.073 179.794 318.443 178.847 319.15 178.195C319.868 177.531 320.776 177.199 321.875 177.199C323.061 177.199 323.986 177.526 324.649 178.178C325.324 178.831 325.661 179.701 325.661 180.789C325.661 181.573 325.46 182.329 325.057 183.057C324.666 183.775 324.192 184.423 323.638 184.999C323.094 185.565 322.397 186.223 321.549 186.974L320.815 187.627H325.987V189.177H318.057V187.822L319.232 186.811ZM329.384 186.109C329.493 186.653 329.727 187.066 330.086 187.349C330.445 187.632 330.929 187.773 331.538 187.773C332.31 187.773 332.876 187.469 333.235 186.86C333.594 186.25 333.774 185.211 333.774 183.743C333.513 184.113 333.143 184.401 332.664 184.608C332.196 184.804 331.685 184.901 331.13 184.901C330.423 184.901 329.781 184.76 329.205 184.477C328.628 184.183 328.171 183.754 327.834 183.188C327.507 182.611 327.344 181.915 327.344 181.099C327.344 179.903 327.692 178.951 328.389 178.244C329.096 177.526 330.064 177.167 331.293 177.167C332.773 177.167 333.823 177.662 334.443 178.652C335.074 179.631 335.389 181.137 335.389 183.172C335.389 184.575 335.269 185.723 335.03 186.615C334.802 187.507 334.399 188.181 333.823 188.638C333.246 189.095 332.446 189.324 331.424 189.324C330.26 189.324 329.362 189.019 328.731 188.41C328.1 187.801 327.747 187.034 327.671 186.109H329.384ZM331.456 183.335C332.109 183.335 332.62 183.134 332.99 182.731C333.371 182.318 333.561 181.774 333.561 181.099C333.561 180.349 333.36 179.767 332.958 179.353C332.566 178.929 332.028 178.717 331.342 178.717C330.657 178.717 330.113 178.934 329.71 179.37C329.319 179.794 329.123 180.354 329.123 181.05C329.123 181.714 329.313 182.263 329.694 182.698C330.086 183.123 330.673 183.335 331.456 183.335Z" fill="white"/>
<path d="M108.152 113.507H69.711C67.2733 113.507 65.2723 111.506 65.2723 109.068V80.5901C65.2723 78.1523 67.2733 76.1514 69.711 76.1514H108.152C110.589 76.1514 112.59 78.1523 112.59 80.5901V109.068C112.604 111.52 110.604 113.507 108.152 113.507Z" fill="white"/>
<path d="M83.4923 108.533C83.295 108.533 83.0977 108.42 82.9991 108.237C82.8582 107.969 82.9709 107.631 83.2386 107.504C84.0277 107.095 85.1127 106.334 85.7327 105.01C86.5219 103.333 86.3246 101.515 85.9864 101.36C85.9018 101.318 85.5637 101.487 85.3664 101.6C84.845 101.868 84.1404 102.234 83.3091 101.938C82.4918 101.656 82.0972 100.938 81.9141 100.585C80.674 98.3166 80.2936 92.3983 81.604 89.4533C82.0409 88.481 82.6327 87.9032 83.3654 87.7341C84.1123 87.565 84.7182 87.8751 85.2114 88.1287C85.62 88.3401 85.8173 88.4246 85.9441 88.3542C86.4514 88.0441 86.4373 86.17 85.7327 84.6764C85.1127 83.3518 84.0277 82.5909 83.2386 82.1822C82.9709 82.0413 82.8582 81.7172 82.9991 81.4495C83.14 81.1818 83.4641 81.069 83.7318 81.2099C84.6759 81.689 85.9582 82.605 86.7191 84.1973C87.466 85.7755 87.8182 88.4951 86.5078 89.2842C85.8455 89.6787 85.2114 89.3546 84.7041 89.101C84.3236 88.9037 83.9573 88.7205 83.605 88.8051C83.1259 88.9178 82.7877 89.4674 82.5904 89.9183C81.449 92.4829 81.7731 98.077 82.8582 100.078C83.0413 100.416 83.2668 100.783 83.6473 100.923C84.0136 101.05 84.3659 100.895 84.8591 100.642C85.3382 100.402 85.8737 100.12 86.4514 100.402C87.6773 100.994 87.5928 103.643 86.705 105.517C85.9441 107.109 84.6618 108.025 83.7177 108.504C83.6614 108.504 83.5768 108.533 83.4923 108.533Z" fill="#3AC6D5"/>
<path d="M81.8433 90.439H71.9795C71.6836 90.439 71.4299 90.1995 71.4299 89.8895C71.4299 89.5795 71.6695 89.3399 71.9795 89.3399H81.8433C82.1392 89.3399 82.3928 89.5795 82.3928 89.8895C82.3928 90.1995 82.1533 90.439 81.8433 90.439Z" fill="#3AC6D5"/>
<path d="M81.8438 100.303H71.98C71.6841 100.303 71.4304 100.063 71.4304 99.7535C71.4304 99.4576 71.67 99.2039 71.98 99.2039H81.8438C82.1397 99.2039 82.3933 99.4435 82.3933 99.7535C82.3933 100.063 82.1538 100.303 81.8438 100.303Z" fill="#3AC6D5"/>
<path d="M95.0048 108.533C94.9202 108.533 94.8357 108.519 94.7511 108.476C93.807 107.997 92.5247 107.081 91.7638 105.489C90.8761 103.615 90.7915 100.98 92.0175 100.374C92.5952 100.092 93.1307 100.374 93.6098 100.613C94.1029 100.867 94.4552 101.022 94.8216 100.895C95.2302 100.754 95.4698 100.318 95.6107 100.05C96.7098 98.0489 97.0339 92.4688 95.8784 89.8901C95.6812 89.4533 95.343 88.8896 94.8639 88.7769C94.568 88.7064 94.3848 88.4105 94.4552 88.1146C94.5257 87.8187 94.8216 87.6355 95.1175 87.706C95.8502 87.8751 96.4421 88.4528 96.8789 89.4392C98.1894 92.3701 97.8089 98.2884 96.5689 100.571C96.3857 100.923 95.9771 101.642 95.1739 101.924C94.3425 102.206 93.6379 101.853 93.1166 101.586C92.9193 101.487 92.5811 101.318 92.4966 101.346C92.1725 101.501 91.9611 103.319 92.7502 104.996C93.3702 106.32 94.4552 107.081 95.2443 107.49C95.5121 107.631 95.6248 107.955 95.4839 108.223C95.3852 108.42 95.2021 108.533 95.0048 108.533Z" fill="#3AC6D5"/>
<path d="M92.8072 88.2557C92.5817 88.2557 92.3703 88.1148 92.2858 87.8753C91.1162 84.3525 93.864 81.6329 94.7517 81.182C95.0195 81.0411 95.3577 81.1538 95.4845 81.4215C95.6254 81.6893 95.5127 82.0275 95.2449 82.1543C94.8504 82.3516 92.3281 84.5216 93.3285 87.523C93.4272 87.8048 93.2722 88.1148 92.9763 88.2135C92.9199 88.2417 92.8635 88.2557 92.8072 88.2557Z" fill="#3AC6D5"/>
<path d="M106.504 90.4393H96.6403C96.3444 90.4393 96.0908 90.1998 96.0908 89.8898C96.0908 89.5798 96.3303 89.3402 96.6403 89.3402H106.504C106.8 89.3402 107.054 89.5798 107.054 89.8898C107.054 90.1998 106.814 90.4393 106.504 90.4393Z" fill="#3AC6D5"/>
<path d="M106.503 100.303H96.6393C96.3434 100.303 96.0898 100.064 96.0898 99.7538C96.0898 99.4578 96.3293 99.2042 96.6393 99.2042H106.503C106.799 99.2042 107.053 99.4438 107.053 99.7538C107.053 100.064 106.813 100.303 106.503 100.303Z" fill="#3AC6D5"/>
<path d="M333.851 22.0631L329.103 21.9802C327.624 21.9544 326.503 22.3436 325.844 23.7837L316.353 44.321L322.806 44.4337C322.806 44.4337 323.925 41.6768 324.175 41.0752L332.037 41.2124C332.22 42.0048 332.725 44.6068 332.725 44.6068L338.431 44.7064L333.851 22.0631ZM326.031 36.4991C326.547 35.1974 328.551 30.2152 328.551 30.2152C328.551 30.2152 329.109 28.9001 329.419 28.0881L329.794 30.0396C329.794 30.0396 330.898 35.4284 331.117 36.5878L326.031 36.4991Z" fill="white"/>
<path d="M308.453 27.8778C308.42 28.9342 309.732 29.6618 311.87 30.742C315.378 32.4098 316.992 34.397 316.919 36.9607C316.796 41.6375 312.544 44.5933 306.077 44.4805C303.33 44.4043 300.677 43.7943 299.251 43.1634L300.213 38.1207L300.995 38.5008C302.996 39.3672 304.3 39.7423 306.765 39.7853C308.526 39.8161 310.426 39.1586 310.467 37.6514C310.498 36.6513 309.708 35.9328 307.332 34.778C305.012 33.6664 301.958 31.8092 302.043 28.5692C302.147 24.188 306.484 21.1914 312.556 21.2974C314.937 21.3389 316.845 21.8655 318.063 22.3377L317.146 27.2121L316.601 26.9489C315.468 26.464 314.024 26.0019 312.009 25.995C309.614 25.9532 308.469 26.9479 308.453 27.8778Z" fill="white"/>
<path d="M299.629 21.4521L295.375 43.9412L289.246 43.8342L293.486 21.3449L299.629 21.4521Z" fill="white"/>
<path d="M277.35 32.6761C275.398 27.4275 270.571 23.0025 263.177 21.0695L263.27 20.6061L272.808 20.7726C274.104 20.8374 275.125 21.2781 275.467 22.6511L277.35 32.6761Z" fill="white"/>
<path d="M290.993 21.3153L280.907 43.6603L274.412 43.5469L269.231 24.6561C273.146 27.2612 276.443 31.3353 277.578 34.1456L278.185 36.4816L284.484 21.2017L290.993 21.3153Z" fill="white"/>
</g>
<defs>
<clipPath id="clip0_1_231">
<rect width="359" height="216.216" rx="11.7445" fill="white"/>
</clipPath>
</defs>
</svg>
